<svg id="action-blindness" viewBox="0 0 133 90"> <path class="st0" d="M20.9 59.8c.1-.2.3-.4.5-.6 10.9-14 27.4-22.1 45.1-22.1 13.2 0 26.1 4.6 36.2 12.9 0 0 3.7 3.1 8.7 8.8.1.1.2.2.2.3.1.1.1.2.2.3.1.1.2.2.3.4L133 39.9l-31.9 4.4 11.4-30.1-26.8 17.9L82.9 0 66.5 27.7 50.1 0l-2.8 32.1-26.8-17.8 11.4 30.1L0 39.9l20.9 19.9z"/> <path class="st0" d="M106.5 62.5c0-.1-.1-.1-.1-.2l-.1-.1c-4.1-4.7-7.3-7.6-7.8-8-9-7.4-20.4-11.4-32-11.4-15.7 0-30.2 7.1-39.8 19.5a6.61 6.61 0 0 0 0 8.2C36.3 82.9 50.8 90 66.5 90c15.7 0 30.2-7.1 39.8-19.5 1.9-2.3 1.9-5.6.2-8zM66.5 84c-9.7 0-17.6-7.9-17.6-17.6s7.9-17.6 17.6-17.6 17.6 7.9 17.6 17.6S76.2 84 66.5 84z"/> <circle class="st0" cx="66.5" cy="66.4" r="12.4"/> </svg>