<svg id="device-galil" viewBox="0 0 273 90"> <path d="M267.5 13.2v2.2H218v1.5h-14.9l-.9-5.5h-3.6L192.3 0h-5.5l-1.1 4h-35.3v2.8h-30V4H90.9v2.8H52.4s-1.4-3.5-2-5.2C50.1.8 49.6.3 48.8.2c-.9-.2-1.9-.3-2.8 0-.5.1-.9.4-1 .9l-4.8 15.2H18.5v-1.1h-1v-.7h-2v.7H15v-.7h-2v.7H0V23h12.8v.6h2V23h.5v.7h2V23h1v-1.2h32.5v5.8h6v-5.8h17c.1 3.1 0 6.1.5 9.1h1.9c.1-.5.1-.9.2-1.4h42.1V32h7v-2.5h1.5c1.6.3 3.2.6 4.7.9 1.3.3 1.4.2 1.3 1.6 0 2.5-.1 5-.1 7.6 0 1-.1 2-.2 2.9-.3 3.7-.8 7.5-1.5 11.2-.6 3-1.2 6-2.2 8.8-1.8 5.1-3.7 10.2-6.2 15-.3.7-.6 1.4-1 2.1 5.8 3.4 11.5 6.8 17.3 10.2.1-.4.2-.6.3-.9 1.9-5.6 3.7-11.1 5.6-16.7 1.1-3.3 2-6.7 2.7-10.1.6-3.1 1.1-6.2 1.6-9.3.4-2.7.7-5.5.9-8.3.1-1.9.1-3.8.2-5.6v-.2s5.2 1.4 12.3 1.8c7.9.5 18 0 18.1 0l7.9 17.7-.3 2.7 1.3 3.4 4 .9 11.6-4 .8-2.9-1.8-6.3-2.1-5-7.8-11c0-.1.4-2.8.6-4.9 2.6-.5 5.1-1.1 7.6-1.6 0-.6.1-1.1.1-1.7 4.2-.1 8.4 0 12.5 0L234 38.7h6.3l14 14 5.4-5.4c2.5 1.7 5.1 3.5 7.6 5.2v3.6h5.5V13.2h-5.3zm-193.6.2v2.8H52.4v-.4V12.2h21.5v1.2zm105.4 21.2c0 1.6-1.3 2.9-2.9 2.9h-11.8c-1.6 0-2.9-1.3-2.9-2.9v-3.9c0-1.6 1.3-2.9 2.9-2.9h11.8c1.6 0 2.9 1.3 2.9 2.9v3.9z"/> </svg>