<svg id="device-g3sg1" viewBox="0 0 316 90"> <path d="M298.9 32.1v-3h-44.8v4.8c-1 0-1.9.1-2.8 0-1-.2-2.1-.3-3.1-.7l-9.4-8.7H223v-5.4h-10.8v-4.5L217 16l31.5 1.4v1.2h2.6V1h-2.6v1.2l-30.9 1.7-4.2 1.7h-44.1L158.8 1h-23.1V0h-5.1v19.5h5.1v-1h23.1s5-2.1 7-2.9h15.4c1.1.2 2 .6 2.9 1.4 2.2 2.1 1.8 7.8 1.8 7.8H48.2v-9.7h-5.9v16.7L0 31.9V41h48.1c-.1 2.1-.3 4.1-.1 6.2h4.9V42l10.6.4v4.1h89.1L150 85.7s14.3 2.8 20.8 4c.8.2 1.7.5 2.5.2v-2.1l.3-6c.1-2.9.3-5.7.4-8.6.2-3.4.8-16.1.9-16.4v-.5h6.7c.6 2.1 1.6 6.2 2.4 9.2.6 2.1 2.5 3.6 4.7 3.6H199l5.2-3.9 7.5 17.9c.7 1.7 2.7 2.4 4.3 1.6l9.8-4.8c1.6-.8 2.2-2.7 1.4-4.3-1.8-3.3-4.7-8.5-6.4-10.6-1.3-1.6-2.5-3.4-3.4-5.4-.1-.2-.2-.5-.3-.7-.3-1.2-.4-2.5-.4-3.7.1-1.6 3.7-6.6 3.7-6.6s19.7 0 21.8.1c.5 0 1 .1 1.4.2l56.9 25.9H313l3-39.5-17.1-3.2zM198.2 66.7h-8.4c-1.7 0-3.1-1.1-3.5-2.7-.6-2.2-1.4-5.2-2-7.4l16-.1h.2l2.6 6.4-4.9 3.8z"/> </svg>