<svg id="device-m4a1-silencer" viewBox="0 0 362 90"> <path d="M362 25.7V13.9h-19.3v4.4h-36.4v.9h-34.2v-4.5h-9.9c-.2-.3-.5-.6-.7-1-2.3-3.8-4.7-7.6-7-11.5-1.1-1.9-2.8-2.6-4.9-2.4-.4 0-.7.1-1.1.1-3.2.3-6.4.7-9.5 1-3.9.4-7.8.8-11.7 1.3-3.7.4-7.5.8-11.2 1.2-3.9.4-7.8.9-11.8 1.3-2.6.2-5.9 2.5-5.8 6.3v6.3h-7v-5.2l-40.7.6-15.9.2v4.4c0 .6-.1 1.3-.1 1.9H133v-4.7h-.1c-.1-.3-.2-.7-.4-1-.9-1.2-1.7-2.5-2.6-3.8-1.9-2.6-3.7-5.2-5.6-7.8-1.2-1.7-3.3-1.8-4.8-.9-.3.2-.6.5-.8.8C118 3 118 4 118 5c0 4.5-.1 9-.1 13.6v.6c0 .1 0 .3-.1.4H73.7v-3.7H0V31.5h73.7v-3.7h38.7v5h9.1v-5h4.3V32h6.9v-4.2h1.9v5.6l7.2.1 4.3.1h.1l45.1.8V30h7v3.9h4.3s1.5 3.8 1.9 11.7c.3 4.6 0 13.6-.3 16-.2 1.5-.4 3-.7 4.5-1.2 5.6-5.4 17.6-5.4 17.6l22.6 6.2s3.7-12.3 5.3-21.1c.4-2.1.7-4.1 1-6.2.3-2.3.4-4.6.6-6.8h23.7l3.2 6.3c-.9 1.2-2.2 2.8-2.2 2.8l5.4 3.4c1.5 3 3 6 4.6 8.9.4.7.6 1.4.7 2.2 0 .3 0 .6-.3.9-.3.3-.6.7-.9 1.1.1.2.2.4.3.5.1.2.2.3.3.5 6.6-1.5 13.1-2.9 19.7-4.5-.8-1.3-1.5-2.5-2.2-3.7l-15.3-26.4c-.5-.8-1.2-1.8-1.2-3.9 0-2.1 2-4.4 4.4-4.7.4-.1.8-.1 1.3-.1h3.1V30.2h17.4l3.2 1.9h13.6v1.2h11.2v7.4h7.6V44h4.9v-3.6c4.7 3.4 13.5 9.6 13.5 9.6l3.6-4.9c2.8 1.9 4 2.6 6.8 4.5l3.6 2.4v2.2h4.5v-1.3-.6-7.7l-.1-18.9zM202.3 14.8c-1-1-1.6-2.4-1.5-3.6.1-2 1.8-3.7 3.8-3.8H241.7c.5 0 1.1 0 1.6.1 1.1.1 2 .6 2.7 1.4.8.8 1.4 1.6 1.7 2.7.3 1.1.8 2.1 1.2 3.3h-46.6zm45 37.5h-13.6c-.9 0-1.7-.7-1.7-1.7v-4.9c0-.9.7-1.7 1.7-1.7h11.1c.6 0 1.2.3 1.5.9l2.5 4.9c.6 1.2-.2 2.5-1.5 2.5zm112.2-34h-14.3v-2.2h14.3v2.2z"/> </svg>