<svg id="device-mp5-sd" viewBox="0 0 207 90"> <path d="M203.8 28.8l-.2-10.2c0-2.3-2.2-3.9-4.4-3.3l-7.6 2-4.8-7.4h-13V4.1h-12.6V10H83.4V6.3H77V10H57.4V0h-5.3v10h-4.7v3.9H0v13.9h47.4v2.9h64.9v-1.2h1c1.3 0 2.3 1.1 2.3 2.3v2c-.2 1.5-1 7.5-3.3 15.8-2.4 8.7-7 21.6-15.2 34.1L107 90c12-18.2 17.1-37.1 19.1-47.5h1.6l3.3.1c1.7.1 3.1 1.1 3.7 2.6l3.1 7.9c.6 1.6 2.1 2.7 3.9 2.8l8.9.3h.1c.5 0 1.1-.1 1.5-.4l2.2-1.2c1.6-.9 3.7-.2 4.4 1.5L167 75l16-9.3-14-23.2h.1v-2.1c0-2.6 2.1-4.7 4.7-4.7h1.9c.9 0 1.5-.7 1.5-1.5V34h10.9v.7c0 .9.7 1.6 1.6 1.6h1.7c.9 0 1.6-.7 1.6-1.6v-5.3l1.8 1.5c1 .9 1.8 2.1 2 3.4 1.5 7.4 2.6 13 4 19.8l6.3-1.8c-1.7-5.6-2.7-15.4-3.3-23.5zm-48.5 23.5l-3.8 2.1c-.3.1-.5.2-.8.2l-8.9-.3c-1.1 0-2-.7-2.4-1.7l-2.7-6.8c-.6-1.4.5-3 2-2.9l7.2.2s4.1 3.4.6 9.4c0 0 3.4.5 4.2-4.1.8-4.6-.7-5.2 1.6-5.1h.1c.7 0 1.3.4 1.5 1l1.9 4.4.4 1.1c.3 1 0 2-.9 2.5z"/> </svg>