<svg id="device-nova" viewBox="0 0 437 90"> <path d="M433.4 33l-97.7-9.2c-.2.3-.3.6-.4.8-1.5 3.1-3.9 4.6-8.2 3.5-3-.7-5.9-1.6-8.8-2.7-6-2.3-12-4.6-17.9-7.2-6.6-2.9-13-6.3-19.5-9.4-1.3-.6-2.6-1.5-4.1-1.2-1.2-2.5-2.6-4.7-4.5-6.6-1.3-1.2-3.4-1.4-4.9-.4l-2.7 1.8c-1.9 1.2-3.9 2.2-6.3 1.8-.4-.1-.9 0-1.3 0-2.7 0-2.7 0-4 2.4-.2.3-.3.6-.5 1h-61.5c-.7.9-1.4 1.7-2.1 2.5h-1.4c-10.2 0-20.3.1-30.5.1H23.9c-.4-.2-.8-.6-1.5-1.4-.4-.5-.7-1.2-1.1-1.8-.3.1-.7 0-1.2 0V5.6c0-1.5-.9-2.2-2.4-2-.9.1-1.9.2-2.8.5-1.2.3-2.3.8-3.4 1.2-.1.7-.1 1.2-.2 1.6-.3.1-.6.2-.9.4 0 .5-.1 1-.1 1.4-1.4.9-2.2 1.4-2.9 1.7H0v10.1h52.9V30c0 3.2 2.5 5.9 5.7 6l129 6.5 11.3-5.7h50.4c5 2.7 9.7 5.9 14.6 8.7 1 .6 2.8 1.1 3.9 1.3 4 .5 8.1.6 12.1.9.3 0 .6 0 .9-.2 1.2-.5 2.5-1.2 3.1-2.4 1-1.7 1.8-3.5 2.6-5.3.5-1 1.4-3.8 1.4-3.8h2.5c15.2 0 27.4 10.2 27.5 22.8.8.2 1.5.4 2.2.4 1.9.2 3.8.3 5.6.4 1.2.1 3.1.1 4.3 0 1.7-.1 3.3-.3 5-.4.6-.1 1.3-.2 1.9-.3.6-.1 1-.5 1.2-1.2.5-1.8 1.6-2.3 3.3-1.6 8.2 3.1 16 7.2 26.6 4.3 10.1 4.1 17.5 7.1 27.4 11.2l4.6 7.3 24 10.4c4.7 2 10-1.2 10.3-6.3l2.6-45.8c.2-2.1-1.4-4-3.5-4.2zM20.5 10.3h-9.9c.1-.4.2-.7.3-.9 1.6-1.8 3.6-1.5 5.8-1.4.2.3.3.6.6.9.6.8.9.8 1.6 0 .2-.3.4-.6.7-1 1.1 0 1.2 1.1 2.1 1.7-.6.4-.9.7-1.2.7zm261.4 32.2c-.1 1-1 1.8-2 1.7l-12.6-1c-1-.1-1.6-.6-1.9-2.2l-.5-3.9c.1-1 1-1.8 2-1.7l13.6 1.1c1 .1 1.8 1 1.7 2l-.3 4z"/> </svg>