<svg id="device-awp" viewBox="0 0 473 90"> <path d="M458.7 33.8h-56.6v5.1h-44.9-.1V28.8h-16.6V26H327v-6.8l14.9 1.9h23.6V6.3h-19l-16.7 1.3h-13V0h-17.2v7.6h-15.1l-27-6.1h-10.7v23.9h10.7l27.1-5.8 4.7.1V26h-10.7v3.5h-5.5c-1 0-1.9.3-2.9.4H30.3c0-.1-.1-.1-.1-.2-.1-.2-.1-.3-.2-.5s-.3-.5-.5-.7c-1.1-1.7-2.9-2.8-5-2.8-2.7 0-4.9 1.8-5.8 4.2H0v9.7h18.7c.8 2.4 3.1 4.2 5.8 4.2 2.7 0 4.9-1.8 5.8-4.2h159.5v12.1h-72.9v7.7h91.6l8-7.9 46.5.5 20.4 8.3 8.8-.1.8 8.9 29.8 2.7 1.6-9.2h2.9c1 0 1.9.6 2.3 1.6l.6 1.2c1 1.5 2.2 2.8 4.1 2.8 4.7.1 9.4.2 14.1.2 2.2 0 4-.7 5.2-2.7.1-.2.2-.4.4-.5.1-.1.2-.1.4-.1l4.6 25 40.7-4.8 15.1-13h16.1l4.7 12.3H473v-42l-14.3-8.8zM349 66.5c-.5.1-1.1.2-1.6.2-4 0-8-.1-11.9 0-1.9 0-3.1-.9-3.8-2.5-.9-2.1-1.2-4.3-.7-6.5.2-.8.3-1.6.6-2.3.3-.9.9-1.5 1.9-1.5h17c.8.1 1.4.6 1.6 1.4.3 1.3.5 2.7.6 4.1.1.7 0 1.3 0 2 .1 2.4-1.4 4.5-3.7 5.1zm34.7 9.5c-8.4 0-15.2-5-15.2-11.1s6.8-11.1 15.2-11.1c8.4 0 15.2 5 15.2 11.1S392.1 76 383.7 76z"/> </svg>