<svg id="device-famas" viewBox="0 0 236 90"> <path d="M233.4 13h-28l-7.1 7h-5.1l-2.4-2.2h-46.9v-.1c-.1-1.2-.3-2.5-.3-3.7-.2-2.6-.4-5.3-.6-7.9-.1-1.5-.6-2.8-1.5-3.9-.2-.2-.3-.5-.6-.7-1.2-.8-2.4-1.2-3.8-1.2-1.8.1-84.6-.3-86.5-.3-4.8 0-7.7 2-9.2 8.1-.6 2.5-1.8 9-1.8 10.9 0 .3 0 .5.1.8.2 1.1.5 2.3.7 3.4.1.5.2.9.3 1.4h-2.9v1.1H35v.9H14.2v-.9L0 25.8V33h14.2v-.8H35v.8h2.8v1.1h5.9c.5 2 .9 4 1.4 5.9.1.4.3.8.7.9.4.1.8.1 1.2 0 .2 0 .3-.3.4-.6.4-.8.8-1.5 1.2-2.3.1-.2.2-.3.4-.4h28.6c.8.1 1.4.4 2 .8 1.2.7 2.3 1.7 3 3 .4.8.9 1.6 1.3 2.4 2 3.4 3.9 6.7 5.9 10.1 2.1 3.5 4.1 7 6.2 10.5.4.6.8 1.2 1.6 1.5 4.4 1.5 8.8 3 13.1 4.5.4.1.8.2 1.3.2h13.2c.2 0 .5 0 .7-.1 1.1-.3 2.1-.7 3.1-1.1 1.8-.7 3.7-1.3 5.4-2.3.9-.5 1.7-1.2 2.3-2.1l.3-.6c.2-.7.4-1.4.3-2.2 0-.7.1-1.4 0-2.1-.2-1.5-.2-3-.6-4.4-.5-1.7-1.1-3.4-1.9-4.9-1.4-2.8-7.2-13.4-7.2-13.4s-1.7-2.2.6-2.2c2.4 0 9.8.1 10.5.2 1.5.2 2.9.5 4.4 1 1.8.6 3.5 1.5 4.9 2.8 2.6 2.3 4.3 5.1 5.3 8.5.3.9.7 2.6.7 2.6l4.5 3.1s-.4 5.7-.9 7.8c-.9 3.7-2.1 7.3-3.4 10.9-1.2 3.4-2.3 6.7-3.4 10.1-.2.6-.2.7.5.9l2.7.9 13.2 4.5c1.1.4 2.3.8 3.4 1.1.5.2.6.1.8-.4.1-.2.2-.5.3-.7 1.4-4.1 2.8-8.1 4.2-12.2 1.4-4.2 2.7-8.3 3.5-12.7.7-3.5 1-7 1-10.5v-9.7s15.6.8 16.5 1.1l-1.1 3.1 11 6.2 2.6-5.2 10.3 4.6h12.5l3.7-25.6-2.5-14.6zM121.5 67.3c-2.1.1-3.9 0-6.4 0-.4 0-.8-.1-1.2-.2-4.3-1.5-8.6-3.1-12.9-4.7-.7-.2-1.2-.7-1.5-1.3-3.8-6.8-7.5-13.5-11.3-20.3-.6-1-3.1-3.1.8-3.1h17.7s14.3 23.7 15 25c.8 1.8 1.7 4.5-.2 4.6zm10.7-49.4H50.6v-5.4c0-2.4 2-4.4 4.4-4.4h72.9c2.4 0 4.4 2 4.4 4.4v5.4z"/> </svg>