<svg id="device-m4a4" viewBox="0 0 281.1 90"> <path d="M281 49.9V16.7h-2c-.3-.1-.6-.1-1-.1h-9.6c-9.6 0-19.3.1-28.9.1h-29.3v1.5h-20.8v-1.5h-2.2v-5.4H170.8V0h-7.4v9.3h-6.3v2h-40.3V17h-2.2v-5.7H43.5V17h-2.2v-2c0-.3-.1-.6-.3-.9-1.7-2.4-3.3-4.8-5-7.2-1.1-1.5-2.2-3.1-3.4-4.5-1.2-1.5-2.9-1.8-4.8-1-1.4.6-1.5 2.3-1.5 2.3v15.9c-.1 0-.2.1-.3.1h-3.7l-2.6-.8H0v8.4h19.6l2.6-.8h4.1v.8h15v-1.1h2.2v6.9h71.2v-6.9h2.2v6.9s1.5 3.9 1.9 11.9c.3 4.6 0 13.8-.3 16.3-.2 1.5-.4 3.1-.7 4.6-1.2 5.7-5.5 17.9-5.5 17.9l22.9 6.3s3.8-12.4 5.4-21.4c.4-2.1.8-4.2 1-6.3.3-2.3.4-4.6.6-6.9h24l3.2 6.4c-1 1.2-2.3 2.8-2.3 2.8l5.5 3.4c1.5 3 3.1 6 4.7 9.1.4.7.6 1.5.7 2.3 0 .3 0 .6-.3.9-.3.3-.6.7-.9 1.1l.3.6c.1.2.2.3.3.5 6.7-1.5 13.3-3 20-4.5-.8-1.3-1.5-2.6-2.2-3.8-5.2-8.9-10.4-17.8-15.5-26.8-.5-.9-1.3-1.9-1.3-4s2-4.5 4.5-4.8c.4-.1.8-.1 1.3-.1h3.1v-9.2h2.2v-1.1h6.7l3.3 1.5h12.7c2.2 3.9 6.3 11.1 6.3 11.1h6v1.9h3.7V45h4.1v-2.6h4.6c3.2 2.3 13.9 10 13.9 10l.9-2.8c1.3.9 2.6 1.7 4 2.6 5 3.2 9.9 6.5 14.9 9.7 1.5 1 3.1 2 4.6 3v2.8h5.8v-7.1-.8c.1-3.4 0-6.7 0-9.9zm-118.8 1.8h-13.8c-.9 0-1.7-.8-1.7-1.7v-5c0-.9.8-1.7 1.7-1.7h11.2c.6 0 1.2.4 1.5.9l2.6 5c.6 1.2-.2 2.5-1.5 2.5z"/> </svg>