<svg id="device-sg553" viewBox="0 0 260 90"> <path d="M259.8 27.4c0-.7-.8-1.4-1.4-1.4-1 0-2.1-.1-3.1-.1-.3 0-.5.1-.5.4 0 .2-.1.3-.1.5-.1.4-.3.9-.4 1.3h-47.5c-.1-.2-.1-.3-.2-.4-.2-.4-.5-.4-.7 0-.1.1-.2.3-.2.5h-4.2c-.1-.1-.3-.1-.4-.2-1.7-1.4-3.5-2.6-4.9-4.3-.5-.7-1.1-.9-1.9-.9v-4.6h-22.9V16h9.4v1h2.4V5.6h-1.4l-.3-5.6h-2.4l-.2 6.3h-2.1V5.2h-3.9v-1h-5.1v2.1h-11.7l-2.2-1.7h-7.4V2.7h-2.2v1.8h-1.1l4.2 12.7h.9l.3.9h-22.3v2H56.5v-4.8H41.9v3.4h-3.4v2.9h-5.4v4h3.3c.7 0 1.4 0 2.1.1v2.9c-1.6 0-3.2-.1-4.8-.1-4.8-.1-9.6-.1-14.4-.2-.2 0-.4 0-.6-.1-1.5-.5-3.1-.6-4.7-.6h-.3c0-.3-.1-.4-.2-.4v-.5L0 26.8v6.5s10.8.1 12.9.1c.2 0 .5 0 .6-.1.2-.4.5-.3.8-.3 1.1 0 2.2.1 3.2-.2.9-.3 1.8-.3 2.7-.3 2.3.1 4.5.1 6.8.1 3.8 0 7.7.1 11.5.1V35h3.4v6.3h4.4V35h2.2c0 .6.1 1.7.1 1.7l3.4 7.4h53.8c1.3 0 2.6 0 3.8.1.1 0 .2 0 .4-.1h.1l.6-.3c.6-.5 1.3-1 2-1.5h18.5s3.1-.3 4.9 1.7c2 2.2.9 6.4.9 6.4l-1.3 1.2V53h2.6v4.7c0 .9-.1 1.9-.3 2.8-.3 1.9-.8 3.9-1.4 5.8-1.6 5.6-3.2 11.2-4.8 16.9-.1.2-.1.5-.1.7.2.1.4.1.5.2 1.5.5 2.9.9 4.4 1.4 4.2 1.4 8.3 2.8 12.4 4.2.4.1.7.2 1.1.3.1-.3.2-.6.3-.8 1.3-4.8 2.6-9.7 3.9-14.5.7-2.8 1.5-5.5 2-8.3.5-3.2.9-6.3.9-9.5v-.2h24.2l.2.2c.1.1.1.2.2.3 2.5 4.4 4.9 8.9 7.4 13.3.3.6.3 1.2 0 1.8-.1.2-.2.3-.3.5-.1.1-.1.3 0 .5.1.4.3.8.4 1.2.5-.1 1-.2 1.4-.4 1.6-.6 3.2-1.1 4.8-1.7 3.1-1.1 6.1-2.3 9.2-3.4.4-.1.7-.3 1-.5-.3-1.3-1.2-3.3-2-4.2-2.8-3.6-7-8.9-8.5-10.7-3.8-4.9-2-9.2 2.4-9.2h5.2v-3.3c0-.9 0-1.7.1-2.5h2.1V41h.5v1.8c0 .9.9 1.8 1.8 1.8 2.4 0 4.8.1 7.2.1h.2v4.5h6.2v3.1h4.2v-3.1h1.3c.4 0 1.7.8 2.1 1.2 5.5 5.8 9.1 7.3 9.1 7.3v-2.8c0-.6-.2-1-.7-1.3-.6-.5-1.2-.9-1.8-1.4-1-.8-1.9-2.9-1.9-2.9s2.8.6 7.3 3.9 7.7 8.3 7.9 8.6V68h7.4s1.4-7.1 2.5-13.6c.3-1.5 1.6-12 1.6-13.5.1-3.7 0-7.4 0-11.1.1-.8 0-1.6-.1-2.4zM54 40.5c-.4-.6-1.6-2.9-1.6-2.9s3.2-.1 4.5 0c.5 0 1.1.3 1.4.7.6.6 1.1 1.4 1.6 2.2H54zm125.2 14h-17c-1.2 0-2.2-1-2.2-2.2v-4.8c0-1.2 1-2.2 2.2-2.2h9.9s.1 1.4-.2 2.9c-.4 2.3-1.2 3.3-1.2 3.3l1.9 2.8s1.9-2.1 2.5-5.1c.6-3 .5-3.8.5-3.8h1.8l2.7 7.9c.2.6-.2 1.2-.9 1.2zm35.7-10.3s-.1 0 0 0c-2.4 0-4.8-.1-7.1-.1-.8 0-1.4-.6-1.4-1.4V41h8.5v3.2z"/> </svg>