<svg id="device-sawed-off" viewBox="0 0 436 90"> <path d="M432.3 27.1c-1.7-2.3-3.3-.5-3.3-.5-.9.6-2 1.3-3 2-3.4 2.3-6.8 4.4-10.7 5.6-2.6.8-5.1 1.1-7.8.3-7-2-14.1-3.9-21.2-5.9-.7-.2-1.4-.4-1.9-.8-3.2-2-6.3-4-9.4-6.1-3.6-2.4-7.1-5.1-10.8-7.4-7-4.3-14.6-7.4-22.4-9.8-9.6-2.7-19.3-4.5-29.3-4.5H0v17.3h11.8v4.3h-9v17.7h12.9v2.4c0 3.6 2.9 6.5 6.5 6.5H137c3.6 0 6.5-2.9 6.5-6.5v-2.4h69.2l1.7 4.8h16.5l1.7-3.3c5.1.2 10.1.4 15.2.6 5 .3 26 .7 29 3.7 1.2 1.2 1 2.3 1.1 3.2.8.1 1.5.3 2.2.3 8.3 1.1 16 3.8 23.2 8.2 4.6 2.9 9.3 5.7 14.2 8.2 6.6 3.4 13.7 4.1 20.9 2.4 4.5-1.1 8.1-3.5 10.5-7.6 1.6-2.7 3.3-5.3 4.8-8.1 1.3-2.5 3.4-3.8 6.1-4.3 1.7-.4 3.5-.4 5.3-.6.5 0 1.1 0 1.6.2 2.9 1.4 5.8 2.7 8.5 4.4 5.8 3.8 11.3 8 16.2 13.1 1 1.1 2.3 2 3.1 3.2 1.9 2.8 3.8 5.7 5.4 8.7 1.7 3.1 3 6.4 4.5 9.6 0 0 1.5 7.7 11.3 2.1s16.6-14.4 18.4-22.2c4.5-19.8 0-36.5-1.8-38.8zm-91.7 36.1c-8.3 3.6-16.3 2.3-24-2-3.6-2-5.7-5.2-5.3-9.6.1-.6.3-1.4.7-1.9 1.8-2.4 4.1-3.7 7.2-3.6 3.3.1 6.7 0 10.1 0 8.3 0 11.3 8.4 8.8 13.4-.5 1-.9 1.9-1.4 2.9 5.4-3.7 5.1-8.9 3.6-14.6 2.7.9 4.1 2.7 5 4.9 1.9 4.5-.5 8.7-4.7 10.5z"/> </svg>