<svg id="device-ak47" viewBox="0 0 317 90"> <path d="M136 32.7l2.9-4.6 17.7.7s-.3 1.8-.5 2.7c-.7 3.8-1.9 7.5-3.3 11.1-1.4 3.4-3 6.7-5 9.9-2.5 4.1-5.5 7.9-8.9 11.4-2.8 2.8-10.7 8.5-10.7 8.5L141.4 90s2.3-1.8 3-2.4c2.1-1.8 4.2-3.5 6.3-5.3 2.1-1.9 4.2-4 6.1-6.1 3.1-3.4 5.8-7 8.3-10.8 1.9-2.9 3.6-5.9 5.1-9 2.3-4.8 4.2-9.8 5.6-14.9l9.2-1.8s.6.9 2.6 1c1.9 0 3.7.1 5.6.2 1.6.1 3.2.1 4.7.2.6 0 1.2 0 1.8-.2 1.7-.5 2.8-1.7 3.3-3.3.9.6 4 2.9 4 2.9l7.2 18.1 2.1 8.6 17.3-7.9-9.3-20.6.5-7.1 11.1-.6L311 56.2l6-4.2V16.7l-4.2-3.3H237l-20.5-9.2h-72L139.3 0H80.2l-2.5 4.1H58l-15.8 12-23.4.3L13.7 6V2.6c0-.7-.7-1.4-1.4-1.4H9.1c-.6.1-1.1.6-1.1 1.2v1.9c.1 3.8.1 12.4.1 12.4H4.7l-4.4 3-.3 2.4h8.2l.4 3.7h72.9l-.3 3 54.8 3.9zm65.5 4.6c-.5 1.2-1.3 2-2.5 2.2-2 .3-7.9-.1-10.8-.2-.8 0-1.6-.2-2.2-.8-.4-.4-.7-.8-.6-1.4.1-2 .2-4 .2-6V30l16.6.5s-.1 5.5-.7 6.8z"/> </svg>