<svg id="device-mp7" viewBox="0 0 123 90"> <path d="M116.6 14.7V14v-3-1.3h-2.2l-.5 1.6h-2.3c-.4 0-.7-.1-.9-.4-.6-.8-1.2-1.5-1.7-2.3-.1-.1-.1-.2-.2-.3V6.8h-5.6V0h-4v6.8h-4.3v1.7h-58V6.8h-5.7V0h-3.6v3.6h-3v5.8l-5.4 3h-2l-2.4 9H0V26h13.4c0 .1 0 .2-.1.4 0 .2-.1.3-.1.5l-1.7 6.5 1.8.5c2.2-4 3.7-6.1 6.4-5.6 1.9.4 3.8 2.5 3.8 4.9V61.4c0 1.1.6 1.2 2.2.5 1.4-.6 2.9-1 4.4-1.1 1-.1 1.7-.3 2.6-.5v-1.2h1v-8.4h-.9v-2.5-11.3h.9v-8.3h16.5c.2 0 .4 0 .6.1.4.4.9.7 1 1.4.3 1.6.7 3.3 1.1 4.9.2.8.6 1.5 1.1 2 1 1 2.2 1.4 3.6 1.4h7.7c1.2 0 2.4.3 3.3 1.5.9 1.3-1 18.7-1.1 19.1.4 0 .8 0 1.2.1v.7c-.2 2.7-.5 5.4-.7 8.1-.3 2.9-.8 5.8-1.4 8.7-.6 2.6-1.2 5.2-2.1 7.7l-1.8-.3-.6 3 16.3 3 .6-3.1-1.6-.3c1.3-4.5 2.2-8.9 3-13.4.9-4.7 1.2-9.4 1.4-14.2h4.5s.9-5.4.6-9.9c-.3-4.5-1.1-7.3-1.6-10.3-.1-.6-.7-3.9-.3-5 .2-.7.7-1 1.2-1.4.3-.2.5-.2.8-.2H113.7c0 .2.1.3.1.5.5 2.8 1.4 9 1.9 12.9.3 2 2 3.6 4.1 3.6H123V14.7h-6.4zm-59.5 21c-1 0-1.8-.8-1.8-1.8l-.8-5.4h13.3l.4 5.2c.1 1.1-.8 2-1.9 2h-9.2z"/> </svg>