<svg id="device-mac10" viewBox="0 0 104 90"> <path d="M103.7 28.9c-.4-1.2-.9-2.3-1.3-3.5-.1-.3-.2-.7-.2-1V3.2s0-2-2-2.9c-1.3-.6-3.3-.2-4.2 0-3.3.7-6.5 1.5-9.8 2.2-1.4.3-2.8.6-4.3.7H68.7v2.3H58.4V1.8h-6.9v3.7c-5.2.1-30.8 0-30.8 0V.2h-8.5v11.6L0 11.7v7.9h12.2v21.3s1.4 6.2 1.4 10.2c-.1 4.1.1 6.4-.2 10.5l-.3 4.2c-.1 1.2-.1 2.4-.2 3.5 0 .5.1 1 .4 1.4.6.7 1.3.7 2.1.5 1.1-.3 1.5-1.2 1.5-2.1 0-1-.1-2-.2-3.1s-.1-2.2-.2-3.3c-.2-2.4-.3-4.9-.4-7.3-.1-9.6 1.5-14.6 1.5-14.6v-14h16.7c.2 0 .4 0 .6.1l2 2.5h.9V36c0 1.8 1.5 3.3 3.3 3.3H57V56h2.1v33.3c0 .1-.1.3-.1.4v.2h12.6V56h8.8v-.8-.9-4.9-.9c0-.2 0-.4-.1-.6-.7-3.1-1.7-6.2-2.9-9.1-.5-1.2-1.9-4.2-.6-7.8 1.3-3.4 5.1-3.9 5.3-4h14.2v6.5h4c1 0 1.9-.4 2.6-1.1 1.1-1 1.3-2.2.8-3.5zM43.1 36c-1.1 0-1.9-.9-1.9-1.9v-4.6h.8l2.4-2.9H57V36H43.1zm57.3-12.7H97l-.1-19.9 1.9-.4c.9 0 1.6.7 1.6 1.6v18.7z"/> </svg>