<svg id="device-xm1014" viewBox="0 0 456 90"> <path d="M355.6 20.2V26s7.8 3.1 17.1 6.8c4 1.7 8.1 3.3 12.2 4.9h.1l.6.3v2.9c-9.3-2.1-18.7-4.2-18.7-4.2v2.1c-.1 0-.2-.1-.3-.1l-41.8-12.2-4.1-6.8S303.8 13 295.4 9.6v-.3c0-2.7-1.1-5-2.6-7.2-1.6-2.3-5.2-2.7-7.1-.6-.8.9-1.6 1.7-2.4 2.5-.5.5-1.1.9-1.7 1.2H206v6.3H26.7l-1.5-8.1H12.6l-1.6 8H-.1V22h11.9v4.4H0v13.7h105.9v3h6.7v-3h95v-2.4h55.1c3.5 0 4.7 1.2 6.4 3.1.7.8 1.2 1.7 1.9 2.5 2.9 3.6 6.5 5.8 11.3 5.6 2.2-.1 13.3 0 14 0 2 .1 3.2 1.2 4.1 2.9 3.4 7 6.9 13.9 10.4 20.9.5 1 .9 2.1 1.4 3.2 1.3 3 .7 5.6-1.6 7.9-.5.5-.7 1-.3 1.6 2 .6 4 .4 5.9 0 2.6-.5 5.1-1 7.7-1.6 3.6-.8 7.2-1.5 10.7-2.3 2.6-.6 3.6-2.3 2.9-4.8-.3-1.2-.8-2.3-1.4-3.4l-10.5-19.5c-.6-1.1-1.5-5.8.8-7.8 3.6-3.1 9.9-.5 9.9-.5l-2.5-4.2c11.1 2.8 22.2 5.6 33.2 8.4v3.1l60.6 15.3 8.5 14.4L456 90V30.6L355.6 20.2zm-251.4 6.2H27.8V22h76.4v4.4zm190.5 14.7c-.7 2.7-2.7 4.3-5.5 4.3H282c-.9 0-1.8-.2-2.6-.4-2.2-.5-3.4-1.9-3.7-4.1-.2-1.5-.2-3 .4-4.4.5-1.2.7-1.3 2-1.3 3.3 0 6.7.1 10 0 1.7-.1 2.6.8 3.2 2.1.7 1.7.5 3.4-.1 5-.2.4-.4.9-.5 1.3.1.1.2.1.3.2.3-.4.8-.7 1-1.1.4-.8.8-1.6.9-2.5.1-1.1.6-1.6 1.7-1.8.4.8.3 1.8.1 2.7z"/> </svg>