<svg id="device-aug" viewBox="0 0 212 90"> <path d="M201.5 20.5h-67.2l-.4-1.2-6.6-2.8h-4v-5.2h1.6l.1.7 2.1.1.8-.9 4.3.6 1.3-.8.6-6.4-.7-1.8-2.9.7h-2.7l.1-.7-2.8-.3-.1.9-1.1-.2.2-1.5-4.3-.6-.2 1.7L98.5 0l-3.8 1.8-.2-.7-3.5.3v10.9l3.3.3.2-.5h5.2l-4.1 2.2-.1 2.3H65.6l-7 3.3.5 1.7-6.1 2-28.3-.3-1.1-.6h-4.3l-.3.6h-2.7l-.8-.5h-2.6l-.8.2h-.4l-1-.8H9.3l-1 .5H5.2L2.9 22H0v7.2h2.9l2.3-.8h3.1l1 .5h1.4l1-.6h.4l.7.3h2.6l.8-.5 2.7.1.4.7h4.3l.9-.5 28.9.1 3.8 1.6v1.1H66l.7 5.6.5 1.4.1 1.7-1.5-.3-1.7.9s.2 2.1.3 3.2v.5L63 65.3h9.5l2.9-2.6-2.5-6.3-.1-15.4-2.5-.8v-.7h18.5c1 1.5 7.2 10.7 10.1 14.9 3.2 4.6 5.7 10.1 13.2 10.4 7.5.2 16 .2 19.2.2.3 0 .7-.1 1-.1.4-.1.7-.4.8-.8.1-.6.2-1.2.1-1.8-.3-1.9-.7-3.9-1.1-5.8-.1-.4-.2-.8-.4-1.2-1.1-1.9-3.1-4.5-4.7-6.9-1.6-2.5-3.5-4.1-3.2-7.2.2-2.9 3.4-3.1 3.4-3.1l6.7-.1 12 3.9s-.6 11.9-3.8 21.2c-3.1 9.3-9 20.3-9 20.3L151 90s1.7-4.2 2.1-5.3c1.4-3.8 2.7-7.6 3.9-11.5 1.8-5.8 3.3-11.7 4.3-17.8.6-3.4 1-6.8 1.3-10.3.1-.6.2-1.9.2-1.9l7.5 5.1 2.4-1.2 14.9 13.4-.8 2.2 1.7 3.2h13.7l4.4-3.6 5.4-31.4-10.5-10.4zm-89 41.4c-1.2-.1-2.4-.4-3.4-.8-1.1-.5-2.2-1.1-3.1-2.1-1.7-2-3-4.2-4.5-6.4-1.4-2.1-2.7-4.1-4-6.2-.5-.8-1.4-2.6-1.4-2.6l1.8-4.1 7.5.1 3.4 5.6 3 .1.7.9h3.5l5.4 10.2 1.3 5.5c-.1-.1-8.3-.1-10.2-.2z"/> </svg>