<svg id="device-negev" viewBox="0 0 382 90"> <path d="M382 68.9c-.4-4.2-.8-8.4-1-12.6-.2-4-.4-8.1-.4-12.1 0-3.1.2-6.1.4-9.2.2-2.8.5-5.5.7-8.3.1-1.8.3-3.5.3-5.3 0-1.1-.8-2.1-1.6-2.2-3.2-.4-6.4-.2-9.5.6-1.8.5-3.7 1.1-4.9 2.7h-65.8c-1.2-.1-2.3 0-3.5-.1V18h-8.8v1.7h-6.1v-2.5h-14.7V6.6v-.7c0-1.3-.5-2.4-1.8-3-1.3-.6-2.5-.6-3.7.3-1.5 1.2-3 2.3-4.5 3.4h-19.3v4c0 .2-.1.5 0 .7v2.6c0 .4 0 .7-.1 1.1h-37.3V9.5h-11.6V6.6h-6.2v2.8h-14.7l-1.8 2.1c-.2.1-.5.1-.8.1-4.2-.1-8.4-.1-12.7-.1-1.2 0-2.5-.1-3.7.2-1.5.4-3.1.6-4.6 1.3-1.4.7-3 .9-4.5 1.4-.3.1-.7.1-1.1.2-.1-.7-.1-1.3-.2-1.9-1-.1-1.9-.3-2.8-.4-.3-.1-.8-.1-.8-.3-.2-.6-.7-.7-1.1-.9-.9-.4-1.9-.8-2.8-1.3-.8-.4-1.7-.8-2.8-1.3v-.2h32.5V0h-38.6c-1.1.2-1.6.7-1.6 1.8 0 2.5-.1 5-.1 7.6 0 .6.1 1.2.1 1.9.1 1.1.8 1.6 1.7 1.8 1 .2 1.9.4 2.9.5 1.4.2 2.8.4 4 .6 0 .7.1 1.3.1 2H89c0-.7.2-1.4-.4-2.1-.7-.9-1.7-.8-2.5-.9-.8-3-1.6-6-2.3-8.9-.2-.8-.7-1.2-1.3-1.3H79l-.9-.2-3.8 13.4H48v1H26v-2.1H0v10.5h26v-2.1h22v1h19c1.7 0 3.3 0 5 .1l-1.4 5h-2.9v14.9c0 1.5 1.2 2.6 2.6 2.6h1.8c.2 0 .3.1.5.1v-.1h2.5c.2 0 .3.1.5 0h.7c1.4 0 2.6-1.2 2.6-2.6v-6.8h7.8c0 .2.1.4.1.6v6.2l3.6 4.8 4.2-.1c0 .2-.1.3-.1.5-.3 1.2-.7 2.3-.8 3.5-.5 3.3-.4 6.7.5 10 .4 1.4.5 2.7-.7 3.7-.1 0-.1.1-.1.2-1 1.6-.5 3.3 1.2 4.2 1.9.9 3.8 1 5.8.2.8-.3 1.5-.8 1.6-1.8.1-.9.2-1.9-.5-2.7-.8-.9-.8-1.9-.4-3 1.6-4.2 1.9-8.5 1.1-12.9-.1-.6-.2-1.2-.3-1.9l3.3-.1 2.4-9.1c7.9.1 15.7.2 23.6.2 9.9.1 19.9.2 29.8.2 1.7 0 3.4.2 5.2-.3 1.5-.4 3.2-.1 4.7-.1v10.2H168v3.2h-1.5v32.3h1.5V90h26.5v-4.2h1.5V53.5h-1.5v-3.2h-2.8V45h6.3c.3 1.8.7 3.5 1 5.4h3.2s1.5 4.4 5.7 8.3c4.6 4.2 14.2 3.3 17.6 3.3 1.1 0 2.6.6 3.1 1.5 3.2 6.1 6.4 12.2 9.7 18.3.3.5.3 1.1.2 1.7-.3 2-.5 3.9-.8 5.8.7.9 1.6.5 2.4.4 4.5-.5 9-1 13.4-1.5 1.1-.1 2.1-.2 3.2-.4.9-.2 1.6-1.1 1.4-2-1-4.3-1.9-8.7-3.8-12.8-.4-1-.8-2-1.4-2.9-.9-1.6-1.9-3.1-3-4.6-.5-.7-1.1-1.4-1.7-2-.6-.6-1.2-1.1-1.8-1.7-.4-.5-.8-1.1-1.1-1.6-1-1.7-1.1-3.4-.4-5.2.2-.4.2-.9.3-1.3.1-.7.4-1.1 1-1.5l1.2-.9c.9-.5 1.5-1.3 2-2.2.9-1.6 2-3.2 3-4.8h14.5v-2.8h14.7V39h6.2v1.7h8.8V37h3.4c.5 0 1-.1 1.4-.2h18.1c2.2.2 4.1.9 5.9 2.1 11.8 7.7 23.5 15.4 35.3 23.1 1.6 1.1 3.1 2.2 4.2 3.9.6.9 1.5 1.8 2.5 2.4 1.3.8 2.8 1.2 4.3 1.4 1.3.2 2.6.4 3.9.5 2.1.1 4.1 0 6.2-.2.2-.4.2-.7.2-1.1zM222 57.8l-5 .1c-4.4.1-8.3-2.7-9.6-6.8l-.1-.3c-.3-1 .4-2 1.5-2h11.1l3.6 6.5c.6 1.1-.2 2.5-1.5 2.5zm65.9-22.7h-6.2V23h6.2v12.1zm74.9 21.6c-.1 0-.2.1-.3.1-2-1.3-3.9-2.6-5.9-3.9-6.3-4.1-12.7-8.3-19-12.5-2.4-1.6-3.6-3.9-3.4-6.9.1-1.3.8-2.3 1.7-3.2l.2-.2c2.1-1.7 2.1-1.7 4.8-1.7 5.4 0 10.8.1 16.2.1 1.9 0 3.9.1 5.9.2-.3 9.4-.4 18.7-.2 28z"/> </svg>