<svg id="device-mp9" viewBox="0 0 187 90"> <path d="M183.1 16.5h-18c-.4 0-.9.1-1.3.1-1.1.1-2.1.4-3.2.4-2.3.1-4.5 0-6.8 0h-48.6v-2h-6.9V3.7h-8.6L86.5 0s-3.1 3.5-5 5.2H24c-1.7-.7-3.4-1.5-3.4-1.5V1.3h-3.5v2.5l-3.9 2.4-.8 3.8H9.6v1.4H0v9.7h8.6l-4 9.6 2.9 1.2 2.2-5.3c.6-.6 1.4-1 2.2-1.4.2-.1.5-.1.7-.1 1.5.3 3.1.6 4.6.9.2 0 .4.2.5.3.7.8 1.2 1.8 1.5 2.8.1.2.1.5 0 .7-.2.8-.6 1.6-.8 2.4-.9 2.9-1.9 5.7-2.8 8.6-1.5 5.4-2.6 11-3.4 16.6 0 .3 0 .7-.1 1.1 4.3.6 8.5 1.6 12.8 2.1.1-.3.1-.5.2-.8.5-2.9 1.1-5.8 1.6-8.7.4-2.6.7-5.2.9-7.8.2-2.4.2-4.8.3-7.2 0-1.5 0-3 .1-4.6 0-.2.1-.6.2-.7.8-.8 1.7-1.5 2.7-2 .3-.1.5-.2.9-.2.6.1 1.3.3 1.9.3.7 0 1.2.3 1.6.8 2 1.9 4 3.7 6 5.5.6.6 1.3.9 2.1.9 2.6 0 5.3 0 7.9.1.7 0 1.4-.2 2-.6.2-.2.5-.3.7-.4l.9-.3c.1.3.3.6.3.9.6 2 1.2 4 1.8 5.9.7 2.3 1 4.6 1 6.9 0 3.7 0 7.4-.1 11 0 .3 0 .5.1.8.4 0 .8.1 1.2.1V89c0 .9 0 .9.9.9h11.4c.8-.1.9-.2.9-.9 0-6.5 0-13-.1-19.4v-8.4-.7h4.2c.7 0 .7 0 .7-.7 0-2.7 0-5.4.1-8 0-1.9-.2-3.8-.8-5.7-1.1-3.7-2.2-7.5-3.3-11.2-.1-.3-.2-.7-.2-1-.2-1.2-.1-2.4.1-3.5.1-.5.3-1 .7-1.3.6-.5 1.3-.8 2-1l25.8-1.8v-2.9h65.2c.9.2 1.7.5 2.4 1 .4.3.8.7 1.2 1.1.7.7 1.3 1.4 2.3 1.8 1.9.9 2.3 3 1.4 4.5-.3.5-.2.9 0 1.4.1.3.3.7.4 1 2 7.2 4 14.3 6 21.5.3.9.8 1.4 1.8 1.4.6 0 1.3-.1 1.9-.1.6-.1 1.2-.1 1.8-.2l.7-.1-3.6-40.2zm-129.4 17c-.6.7-1.3 1.1-2.3 1.1H44c-.7 0-1.3-.2-1.9-.7-1-1-2-1.9-3.1-2.9-.2-.2-.4-.5-.4-.8 0-.7-.1-1.4-.1-2.1 0-.3.1-.5.4-.7.6-.4 1.1-.9 1.7-1.3.2-.1.4-.2.6-.2h5.4c.3 0 .5.1.7.3.9 1.2 1.3 2.6 1.1 4.1-.1.8-.6 1.5-1.2 2.1l-.3.3c-.1.1-.4.3-.4.4 0 .1.6.8.9.9h.5c1.7-.4 2.5-2.1 2.6-3.3.1-1.2-.1-2.3-.6-3.4-.1-.2-.2-.5-.1-.8.1-.6.3-.7.9-.7.5 0 1.1-.1 1.5.1.4.2.7.8.9 1.2.9 1.5 1.4 3.1 1.3 4.8.1.6-.3 1.1-.7 1.6z"/> </svg>