<svg id="device-scar20" viewBox="0 0 350 90"> <path d="M343.3 35v2.8h-4.8v10.9H330v-2.9h-13.3v-3.2H329V24.7l-53.9-.1c-1.5 0-2.4 1.8-1.3 3l12.5 14c.5.6 1.2.9 2 .9h14.1v3.2l-13.9-.1c-1.8 0-3.6-.8-4.8-2.2l-10.3-11.8c-.4-.5-1-.7-1.6-.7h-8.5v-6.3h-3.1v-3.8h-21.5v3.8H226v-8.3h3.4l2.6 1.8h24.6V5.8H232l-1.6.8H226v-2h-10v2h-6.7V5.3h-2V2.8h-1.2V0h-6.2v2.8h-1.2v2.5h-2v1.4H192v-2h-10v2h-9.6c-7-1.7-21.6-5.4-21.6-5.4h-22.1v18h-19.9v5.4H72.4v9.9H0v9.7h121.5v5.3h59.4s2.3-.2 3.2.5c1.2.9 1.5 1.8 1.5 3.3 0 1.9.1 4.5.1 4.5l-2 4.6 3 1.4v20.3l23.5 4.5s.1-12.7.1-20h23c.2.2.4.4.6.7.6 1 1.1 2.1 1.7 3.1.2.4.3.8.1 1.2-.3.5-.5 1-.6 1.5-.3.7-.1 1.1.7 1.3.5.1 1.1.2 1.6.3.4.1.7.2 1 .6 1.5 2.6 3 5.3 4.6 7.9.4.7.3 1.3-.1 2-.2.2-.3.5-.5.8.4.5.7 1 1.1 1.7 5.5-1.3 11-2.7 16.5-4.2-.2-.4-.3-.6-.5-.9-4.5-6.6-8.9-13.2-13.4-19.8-.5-.8-1.1-1.6-1.5-2.4-.7-1.3-.8-2.8-.2-4.7.6-1.9 2.5-2.8 4.4-3.1h11.7c.1-.4.2-.8.3-1.3h1.4c4.6.1 9.3.3 13.9.4.2 0 .5.1 1.1.1 5 .7 9 6.6 9.5 14.1h43.4v-2.6h8.5v9.7h4.8v2.8h4.7c.3.1.6.1.9.2v-.2h1.1V35h-6.8zM182 24.6h-51.8v-3.9h20.1s14.8-3.2 22-4.5h9.8c-.1 2.9-.1 5.7-.1 8.4zm9.9-3v-5.3h4.7v.8h2v1h8.7v-.9h1.9v-.8h6.7v5.3h-24zM230 63.9c0 1.3-1 2.3-2.3 2.3H216c-1.3 0-2.3-1-2.3-2.3v-3.6c0-1.3 1-2.3 2.3-2.3h11.7c1.3 0 2.3 1 2.3 2.3v3.6zm108.4-2.1h-8.5v-9.3h8.5v9.3z"/> </svg>