<svg id="device-bizon" viewBox="0 0 200 54.9"> <path d="M23.8 4.6c.2.1.4.1.5-.1.1-.2.3-.2.5-.2h1.3c.4 0 .8 0 1 .4 0 .1.2.1.4.1h28.6c.5 0 .5 0 .7.5V1.8l.1-.1c.6 0 1-.2 1.4-.8.5-.7 1.2-.6 1.8-.1.3.3.6.4 1 .4h.6c.3 0 .6.1.7.2.3.3.6.3 1 .3 2-.1 4-.1 6-.2 0 0 .1 0 .1-.1.6-.7 1-.8 1.8-.2.1.1.3.2.5.3V.8c0-.5.1-.6.8-.6-.1.7-.2 1.4-.2 2.1-.4.1-.4.1-.7-.1-.2.2-.4.5-.6.7-.1 0-.2.1-.2.2v.7H123c.7 0 1.3.2 1.8.7.6.6 1.3 1.2 2 1.9.2.2.4.3.7.2.4-.1.8-.2 1.3-.4 0-.2 0-.3-.1-.5h.8c.4.8.8 1.6 1.3 2.4-.3.4-.8.4-1.3.7.3.3.6.5.9.7l.8.8c.1.1.2.3.2.4 0 .7.6 1.2.5 2H137.1c.5 0 .5 0 .6.5h.6c.2-.4.4-.7.7-1 .7-.8 2.1-.7 2.6.2.4.7.9.9 1.7.9h53.1c.1-.4.3-.5.7-.5h1.8c.7 0 1.1.3 1 1.1l-.3 2.4c-.3 2-.5 3.9-.5 5.9 0 2 0 4-.1 6 0 2.5.2 5.1.5 7.6.1 1.2.2 2.5.3 3.7v.2c0 .7-.2.9-.9.9h-1.4c-.4 0-.8 0-1.2-.2-.3-.1-.8-.1-1.2-.1-1.7 0-3.4-.5-5-1-6.1-1.7-12.2-3.4-18.4-5.1-7-1.9-13.9-3.8-20.9-5.8-4.1-1.1-8.3-2.3-12.4-3.4-.2-.1-.5-.1-.7-.2-.1.2-.1.4-.2.6-.3-.1-.6-.1-.8-.2-1.5-.3-2.9-.6-4.4-.9-.2-.1-.5 0-.7 0-.4.1-.8 0-1.1 0-.1 0-.2-.1-.3-.1h-2.1c0 .3-.1.7-.1 1.1v.8c0 .8-.2 1.5-.7 2-.2.3-.5.6-.6.9-.3.6-.3 1.2-.1 1.8l2.7 8.1c1.1 3.3 2.2 6.5 3.3 9.8.2.5.3.9.4 1.4 0 .6 0 1.1-.3 1.6-.3.7-.8 1-1.5 1.2-1.7.5-3.4 1-5.1 1.6-.5.2-1 .1-1.6.1-.9-.1-1.9-.3-2.8-.4-.8-.1-1.3-1-1-1.7.2-.5.4-.9.6-1.4.1-.3.2-.5.1-.8-.3-1-.6-2-1-3-1.6-4.8-3.3-9.5-4.9-14.3-.3-.8-.5-1-1.4-1h-2c-.1.1-.1.3-.2.4-.3 1-1 1.6-1.9 2-.5.2-1.1.2-1.6.2-2.7-.1-5.5-.2-8.2-.3-.7 0-1.3-.1-2-.1-.3 0-.7-.1-1-.1-.7-.2-1.1-.6-1.4-1.2l-.3-.9c-1.2-.1-1.8.1-2.9 1 .4 1 .8 2 1.3 3-.2.1-.3.2-.5.3-.1-.2-.2-.3-.2-.5l-1.5-3.6c-.1-.2-.2-.4-.5-.5-.7-.2-.8-.7-.8-1.4v-2.9c-.2 0-.3-.1-.5-.1h-3c-.8 0-1.3.5-1.3 1.4 0 1.8-.1 3.7-.1 5.5 0 .2 0 .4.1.6.2.4.1 1.4-.2 1.6-.1.1-.2.2-.4.2h-2c-.2-.4-.1-.8-.1-1.2 0-.5 0-.6-.5-.6H24.5c-.1.5-.2.9-.3 1.4-.1 0-.3.1-.4.1h-6.1c-.3 0-.5-.1-.7-.3-.4-.4-.6-.9-.6-1.5-.1-1-.2-1.9-.2-2.9-.2-1.8-.2-3.6-.2-5.5 0-1.5.2-3 .3-4.5 0-.3.1-.5.1-.8.1-.5.1-.5.6-.5h1.7c0-.2.1-.3 0-.4-.2-.5-.4-1.1-.5-1.6h-2.8c-.1.3-.3.6-.4.9h-1c-.1-.1-.2-.3-.3-.5 0 .3-.1.5-.1.7H12V18c-.4.5-.8.5-1.2-.1-.9.1-1.8.2-2.8.3-1.6.1-3.1.2-4.7.3-.7 0-1.3.1-2 .1H1c-.6-.1-.7-.2-.7-.7-.2-1.5-.2-3 0-4.5.1-.7.2-.8.9-.8 1.1 0 2.2.1 3.3.1 1.9.1 3.8.3 5.7.5h.7c.4-.5.7-.5 1.1 0 0-.1.1-.1.1-.1-.1-1.8-.1-3.5-.2-5.3l-.3-5.1c0-.5 0-1.1.1-1.6 0-.3.2-.5.4-.8.2-.2.4-.3.8-.3h1c.8 0 1.3.4 1.6 1 .4 1 .7 2 .8 3 0 .2 0 .3.1.5.5.1 7.2.2 7.4.1zm116.7 17.9c.2.1.3.1.5.1 5.4 1.4 10.8 2.7 16.3 4.1 9.3 2.3 18.6 4.7 28 7 3.5.9 7 1.7 10.5 2.5h.4c.4-.8.1-1.5 0-2.3-.1-1.4-.4-2.7-.5-4.1-.1-2.2-.2-4.3.1-6.5.2-1.7.4-3.4.5-5v-.6c-.1-.3-.1-.6-.2-1l-51.4-.3c.2.3.3.5.5.7.6.9 1.3 1.8 1.9 2.7.3.4.4.8.3 1.2-.3 1.5-1.8 2-2.9 1.3-.3-.2-.5-.4-.8-.5-.2-.1-.5-.2-.8-.3-.5-.1-1.1-.2-1.6-.2-.3.3-.5.7-.8 1.2zm-37.4 9.1c.1-.1.3-.1.4-.2.4-.2.8-.4 1.1-.6.9-.5 1.4-1.3 1.7-2.3.2-1 .2-1.9.1-2.9 0-.4-.1-.7-.1-1.1-.4 0-.7-.1-1-.1-.4 0-.6-.1-.8-.4-.2-.3-.5-.4-.9-.4-.9 0-1.9 0-2.8-.1-1.7 0-3.3-.1-5-.1-.1 0-.2 0-.3.1v1.1c.2.1.4.2.5.2v6.6c0 .4.1.8.2 1.2.1.7.6 1.1 1.3 1.2.9.1 1.9.1 2.8.2 1.6.1 3.1.1 4.7.2 1.1 0 2.2.1 3.3.1 1 0 1.8-.3 2.4-1 .6-.6.8-1.4.8-2.2v-3.4-.2c-.2 0-.3-.1-.5-.1v-3.6c-.5 0-.3.6-.6.7h-1.7c-.5 0-.7.2-.8.7 0 .3-.1.6-.1 1-.1 1-.2 1.9-.5 2.8-.2.6-.6 1-1.1 1.4-.6.4-1.2.8-1.9.9-.3.3-.7.5-1.2.3zM76.9 19.3H66.1c-.4 0-.9.1-1.3 0-1.6-.2-3.2-.5-4.7-.6-2.1-.1-4.3-.1-6.4-.1-1.4 0-2.9.1-4.3.1H25.2l-.3-.6h-2.2c-.4 0-.9.1-1.2-.2-.2.2-.2.4-.1.6.2.3.2.6.2.9v.9c.5.1 1 .2 1.4.3.1 0 .2 0 .2.1.1.4.4.3.6.3h7.1c3.6 0 7.2-.1 10.8-.1 7.3 0 14.6-.1 21.9-.1H74.5c.2 0 .4 0 .5-.1.1-.3.4-.2.6-.3.3 0 .5 0 .8-.1.1-.2.1-.4.4-.4.1-.1.2-.2.1-.6zm64.1-2.8l.9 1.5c.4.6.4 1.2.2 1.9l-.3.9c.3 0 .6.1.8.1.6 0 1.1.2 1.6.6.3.2.6.4.9.5.5.2 1 0 1.4-.4.3-.4.3-.8 0-1.3-.8-1.2-1.6-2.4-2.5-3.5-.1-.2-.2-.3-.5-.3H141zm-96.8-6h-1.5c-.4 0-.7.1-.9.3-.4.3-.5.7-.4 1.1.1.5.5.9 1 .9h3.5c.5 0 1.1-.6 1.1-1.2s-.5-1.1-1.2-1.1h-1.6zm-20.4 2.3h1.4c.4 0 .7-.1 1-.3.4-.3.6-.7.5-1.1-.1-.5-.5-.9-1-.9-1.1 0-2.3-.1-3.4 0-.8.1-1.4.7-1 1.6.2.4.5.6 1 .6.4.1.9.1 1.5.1zm10 0h1.3c.4 0 .7-.1 1-.3.4-.3.6-.7.5-1.2-.1-.4-.5-.8-1-.8-1.1 0-2.2-.1-3.3 0-.8.1-1.4.7-1 1.6.2.4.6.6 1 .6.5.1 1 .1 1.5.1zm105.4.4h2.3c-.3-.5-.6-.9-1.2-.9-.6.1-.9.3-1.1.9z"/> </svg>