<svg id="device-m249" viewBox="0 0 397 90"> <path d="M396.8 13.6c-.1-.3-.1-.6-.1-.8-.4-.2-.8-.4-1-.6-.5-.4-.9-.9-1.4-1.4-.9-1-2.1-1-2.9.1-.8 1.2-1.6 2.4-2.2 3.6-.3.6-.6.8-1.2.8l-8.1.9c-6.2.8-12.4 1.5-18.6 2.4-1.5.2-3 .6-4.4 1.1-1.9.6-3.3 2-4.2 3.7-.9 1.7-2.3 2.8-4.1 3.4-.1.1-.3.2-.4.2-1.7.4-3.3 1-5.1.6-1.6-.4-3.2-.5-4.9-.8-4-.6-7.9-1.1-11.9-1.9-4.1-.8-8.1-1.9-12.1-2.9-.2-.1-.4-.1-.6-.2-2.8-1.6-5.6-3.3-8.4-4.9.3-1.8.5-3.6.5-3.7 0-.2-3.4.4-5.5.7-2.5-.8-4.9-1.6-7.5-2-1.2-.2-2.4-.5-3.6-.6L276 9V6.8c0-.4 0-.8-.1-1.1-.8-3.3-4.9-6.8-9.4-5.1-1.2.5-2.5.8-3.7 1.2-2.5.8-5.1 1.6-7.6 2.5-2.1.7-2.5 1.9-2.2 4.7 0 .1-.1.1-.1.1h-63.1v11.4H183V8h-36.4v6.5l-35.5-.3c-.1.9-.2 1.6-.3 2.4-.8.1-1.6.2-2.4.4-4.2 1-8.3 1.9-12.5 2.9-.5.1-1.1.1-1.7.2-.4 0-.9 0-1.3.2-.7.3-1.4.4-2 .4-.4-.8-.4-.8-1.1-.9h-4.2c0-.9-.1-1.6 0-2.4.2-1.7 0-3.4-.9-5-.5-.9-.9-1.8-1.3-2.8-.2-.4-.3-.9-.3-1.3V4.6c0-.5-.1-1-.1-1.5h-4.4c0 .3-.1.6-.1.9 0 3.9-.1 7.7-.1 11.6 0 1.3-.1 2.6-.2 3.9 0 .1-.1.1-.1.2-.3 0-.6.1-1 .2v2.4H22.4v-.9H0v8.4h22.4V29h53.2c.6 0 1.2 0 1.8.1V31h-8.3v10.4h3.8v-2H77v2h15.8V58.6h7v-1.1h90v5.1h.2c1.5-.7 2.9-1.5 3.4-3.3.2-.7.6-1.3.7-1.9.2-2.1.2-4.2.3-6.3 0-.2-.1-.5-.1-.8h-4c-.1.3-.1.5-.2.8h-1.5V40.7h7.7v4.8c0 4.6 0 9.2-.1 13.8 0 6-.1 11.9-.2 17.9 0 3.2-.1 6.3-.1 9.5 0 .5.1 1 .2 1.5.3 1.2 1 1.7 2.2 1.7 2.1 0 4.3.1 6.4.1 5.3 0 10.5.1 15.8.1 1.5 0 2.3-.7 2.5-2.2.1-.6.1-1.2.1-1.8.1-9.4.2-18.8.2-28.2V46.3 41c1.4-.1 2.6-.1 3.8 0 0 .3.1.5.1.7V49h4.1v9.4c0 2.5 2 4.5 4.5 4.5h17.6v-4.8c0-.1.1-.3.1-.5 3.9 7.7 7.8 15.2 11.6 22.7l-.5 4.6 2.3 4.2 21.9-9.6-16.5-21c-1.5-2.3-1.2-3.8-.1-5.5.2-.3.7-.6 1.1-.8h4.1l2.3-4.7h15.9l1.6-2.9c3.9-.1 7.9-.3 11.8-.4 1.7-.1 3.4 0 5.2 0 2 0 5.2.2 7.2.4 3.2.4 6.4.9 9.5 1.4 3.4.5 6.9.9 10.3 1.8 1.3.3 2.2 1.3 3.3 2 .1 0 .1.1.1.2.1 1.2.7 2.4.1 3.6-1 2.2-1.9 4.4-2.8 6.5-.3.7-.3 1.3.2 1.9h.7c5 .1 49.4.7 50 .8.3-.5.7-1 .8-1.5.3-1.4.6-2.8.7-4.2.1-4.7.2-9.4.2-14.1.1-7.1.1-14.1.1-21.2 0-1.3 0-2.6.6-3.8.3-.7.7-1.4 1.1-2 .7-.6.9-1.4.5-2.4zM133.6 50.2H99.8v-8.9h33.7v8.9zm46.3-35.7h-28.4v-4h28.4v4zm69.7 45.1h-12.2c-.9 0-1.7-.8-1.7-1.7v-8.2h13.9v9.9z"/> </svg>