<svg id="device-mag7" viewBox="0 0 222 90"> <path d="M221.4 22.3c-1.6-1.4-3.1-3-4.7-4.4l-.3-.3V6.5h-6.7V1.8c.1-1.5-.4-1.9-1.8-1.8-3 .1-6 0-9 0-.6 0-1.3.1-1.9.4l-6.9 2.7c-1.5.6-3 1.2-4.5 1.7-2.4.7-4.7 1.2-7.1 1.7H54.4l-1.5-2.1h-9.8v6.9h-7.8v1.9H18v1.7H.1C0 16.2 0 22 0 22h.2c0 .1 0 .1.1.2H18v2h17.5V26H43v9.3h12c2.3.1 4.6.2 6.8.3 1.8.1 3.7.3 5.5.6 3.7.6 7.2 1.9 10.5 3.7 3 1.7 5.6 3.7 6.7 7.1.2.5.6.7 1.1.8 1.9.2 6.7 1 6.7 1l2.7-14s20.7 4.9 23.8 6.2c2.9 1.2 3.2 3.7 3.9 5.4.9 2.2 2.3 4 4.8 4.5.8.2 1.6.2 2.4.2h10.2c3.9 0 4.3.6 5.3 2.7 2 4.6 3.6 9 5.7 13.6.7 1.6.9 2.9-.2 4.4-.2.2-.3.6-.2.8.3 1.1.8 2.1 1.2 3.2h3.7c.2.5.4.9.5 1.2 1.6 3.9 3.1 7.8 4.7 11.7.3.7.6 1.1 1.5 1.1h21.9c.2 0 .5-.1.9-.1-1.8-4.7-3.7-9.2-5.5-13.8.8 0 1.4-.1 2.1-.1V69c0-.7-.2-1.4-.5-2-1-1.6-2-3.3-3-4.9-3.4-5.4-6.9-10.8-9.3-16.7-.2-.5-.3-.9-.4-1.4-.1-.7.2-1.6.8-2.3l47.3-15.2v-2.1c.5.5 1 .9 1.4 1.3.8.7 1.4.8 2.3.4.9-.4 1.5-1.2 1.8-2.2 0-.5-.1-1.1-.7-1.6zm-80.5 25.3h-10.1c-2.2 0-3.9-1.7-3.9-3.9v-2.1h12.9l2 4.6c.3.7-.1 1.4-.9 1.4zm65.7-40.8h-17l.5-1c.1-.2.2-.3.4-.4 2.4-.9 4.7-1.7 7.1-2.6.2-.1.5-.1.7-.1h6.9c1.1 0 1.3.2 1.3 1.3v2.8z"/> </svg>