<svg id="device-ump45" viewBox="0 0 180 90"> <path d="M179.8 10.7c-.3-.7-.8-1-1.4-1.2h-.6c-.2 0-.5-.1-.7 0l-47.8 3.8h-.1c-.8 0-1.6.1-2.4 0-2.3-.2-4.5-.9-6.6-1.9-1.4-.7-2.8-1.5-4.2-2.4-.7-.4-2.2-1.1-2.2-1.1h-5.7v-2c-.7-.3-1.3-.7-1.9-1-2.3-1.2-4.5-2.4-6.8-3.6-.2-.1-.5-.2-.7-.2H94c-.1.6-.3 1.2.4 1.8-.2.6-.2.6-.4 1.1H51.7v3H19.5c-.4-.6-.9-1.2-1.4-1.7-.6-.7-1-1.5-1.2-2.3 0-.1-.1-.2-.1-.3-.2-.8-.5-1.5-.7-2.3C16 0 16 0 15.5 0h-3c-.3 0-.5.1-.6.4-.2.6-.5 1.1-.7 1.7-.5 1.7-1.1 3.3-1.6 5h-1v10.3H-.1v5.1h8.7v5.8h12.5v3.5h1.6v18.6H30V31.9h1.6v-3.5h16.8l-1 6.9 1.3.1v.2c-1.1 5.3-2.2 10.5-3.3 15.8-1.1 5.4-2.3 10.8-3.4 16.1-1.1 5.2-2.2 10.3-3.2 15.5-.1.6-.3 1.1-.8 1.3l-.1.1c-.7.5-1.2 1.2-1.3 2.1-.1 1.2.4.9 4.4 1.5 2 .3 3.9 1.1 5.8 2 .4.2.7.2.9 0 .3-.2.5-.5.5-.8l.3-1.8c.8-3.8 1.6-7.7 2.4-11.5 1.3-6.1 2.6-12.3 3.9-18.4 1.3-6.5 2.7-12.9 4.1-19.4l.3-1.5 8.6.8c.4 0 .7.2.9.6.5.8 1.1 1.6 1.6 2.4.3.5.8.8 1.4.8h10.8c.6 0 1.1-.2 1.6-.5.9-.7 1.9-1.3 2.8-1.9.6-.4.7-.4 1.3 0 .2.2.3.4.4.6 2.3 5.1 4.5 10.3 6.8 15.4.3.6.6 1.2.7 1.9 0 .4.1.9.1 1.3-.1.8.3 1.1 1.1.6.5-.3 1.1-.5 1.6-.8 3.2-1.7 6.3-3.4 9.5-5.1.5-.3.5-.4.2-.9s-.6-.9-.9-1.4c-3.1-4.8-6.2-9.7-9.3-14.5-.4-.6-2.4-5.5-.3-8.2 1.4-1.9 3.8-2.5 5.9-2.5h16.3c1.8.3 3.7.7 5.5 1.1l46.1 12.8h5.5c.5 0 .9-.1 1.3-.3.3-.1.7-.2.9-.5.3-.4.4-.8.5-1.3 0-.1 0-.3.1-.4v-.2-.1-23.9-.2c-.2-.7-.3-1.1-.4-1.5zM68.6 33.2c0-.7.3-1 1-1h14.8c.3 0 .8 0 1 .2.2.4.5.9.7 1.4l1.1 2.2c.1.2.1.4.1.6-.9.7-3 2-4 2.7h-11l-3.5-5.1v-.1c-.3-.2-.2-.6-.2-.9zm71.4-5.9l-6.4-1.6c-1.3-.3-2.2-1.5-2.2-2.9v-3c0-1.6 1.2-2.9 2.8-3l6.3-.4c1.7-.1 3.1 1.2 3.1 2.9l.1 5.1c0 1.9-1.8 3.4-3.7 2.9zm32.4 2c0 2.5-2 4.6-4.6 4.6h-2.3c-.4 0-.9-.1-1.3-.2l-12.7-3.8c-1.9-.6-3.3-2.4-3.3-4.4V20c0-2.4 1.8-4.4 4.2-4.6l15-1.2c2.7-.2 4.9 1.9 4.9 4.6v10.5z"/> </svg>