<svg id="device-p90" viewBox="0 0 222 90"> <path d="M221.3 42.6c.2-3.2.4-6.5.7-9.7.1-1.3.1-2.6-.1-3.9-.1-.6-.2-1.3-.8-1.7-.5-.3-3-.3-3.6 0-.1 0-.1.1 0 0-.5-.1-.8-.2-1.1-.2-1.3 0-2.7.1-4 .1-6.2 0-12.5 0-18.7.1-11 .1-22 .1-33 .2-2.3 0-4.5.3-6.8.3h-41.4c-4.6 0-9.2 0-13.8.1h-1.1c-.1-.3-.1-.5-.2-.7-.1-.9-.2-1.8-.4-2.8-.3-1.3-.4-2.7-.9-4-.7-2.1-4-10.3-4.3-10.5l-2.7-1.8V0h-7.7v12.1H43.6V8.3h-3.8c-.2 0-.4-.1-.6 0h-.9c-.1-2.8.2-5.5-.1-8.2h-3c-.2 2.7.1 5.5-.1 8.2-.1 0-.2.1-.3.1h-1.7v4.7H30c-.4 0-.7.1-.9.5-.2.4-.5.7-.7 1-2.1 2.5-4.1 5.1-6.2 7.6-.3.4-.5.7-.5 1.2v13.1h3.6v2.9h-4c0 .1-.1.1-.1.2-.1.2-.2.4-.5.4s-.4-.2-.5-.5c0-.1 0-.1-.1-.2h-1.3c-.1.2-.2.4-.3.7h-.2c-.1-.2-.2-.4-.3-.7H2.3L0 48.7h17.7c.2-.3.3-.7.6-1.1.4.6.5 1.7 1.6 1.1.1-.2.2-.5.3-.8.4-.1.7-.2.8.2.1.3.4.3.7.3h3.2l-3.3 5.5v18.3h8.9c.5-.1.6-.4.6-1.1l.6-7.5c0-.6.1-1.2.3-1.8.2-.6.6-1.1 1.2-1.2.5-.1 1-.2 1.5-.2h5.6c.3 0 .6 0 .9.1 1.8.5 2.6 2 2.5 3.8-.2 2.2-.1 4.3.2 6.4.4 2.5 1.1 4.9 2.2 7.2 1.4 2.9 3.1 5.4 5.9 7 .3.2.5.4.7.5 1.5.8 2.9 1.7 4.5 2.3 3.3 1.3 6.8 1.8 10.4 2 2.9.2 5.7 0 8.6-.4.4-.1.9-.1 1.3-.2.6-.1 1-.8.7-1.4-1-2.1-1.5-4.4-2.1-6.6-.5-2-.8-4.1-.8-6.2 0-.8.2-1.4.7-2.1.2-.2.4-.4.7-.4 2.8 0 5.7 0 8.5-.1.6 0 1.1.1 1.5.6.4.4.8.9 1.1 1.4 1.3 1.6 2.5 3.3 4 4.7 2.3 2.2 5 4.2 7.9 5.6 1.7.8 3.4 1.7 5.2 2.4 2.5 1 5.2 1.5 7.9 1.9 3 .4 6.1.6 9.1.7 2.8.1 5.6-.1 8.3-.3 3.4-.2 6.8-.6 10.1-1.3.7-.1.7-.2.8-.9l.3-3c0-.4.1-1.1.1-1.1l24-8s.8 2.8 1.1 3.8c.1.5.2.7.4.8v.1h45.9c5 0 8.9-4.1 8.7-9.1-.1-1.3-.1-2.3-.1-2.6-.1-2.4-.3-4.8-.3-7.3-.1-3.6-.1-7.1-.1-10.7-.1-2.2 0-4.8.2-7.4zM74.6 63.5c-.1.3-5.6 1.9-5.7 2.2-.1.3-.2.6-.3.8-.8 2.2-2.4 3.5-4.6 4-1.2.3-2.4.5-3.6.1-2.3-.9-4.2-2.2-4.9-4.7-.7-2.5 0-5.9 2.4-7.6.7-.5 1.5-.8 2.3-1.1.5-.2.8-.5.9-1 .2-.8.4-1.5.6-2.3.3-1.1 1-1.6 2.1-1.6h5.8c.7 0 1.4.1 2 .4 1.2.7 2.3 1.4 2.9 2.7.3.6.4 1.2.5 1.9.5 2.1.1 4.2-.4 6.2zM43.2 27.9c-2.8-.2-2.8-3.5-1.1-3.8 2.3-.4 36.8-1.9 38.1-2h1.1c.4 1.9.8 3.7 1.2 5.7-13.2.1-26.3.2-39.3.1zm81.1 45.2c-5.5 0-12.1-4.7-15-6.4-3-1.7-6.1-4.2-6.1-7.7s2.8-6.3 6.3-6.3c2.9 0 11.1-.4 14.8-.4 5.7 0 10.4 4.7 10.4 10.4 0 5.8-4.7 10.4-10.4 10.4z"/> </svg>