<svg id="equipment-c4" viewBox="0 0 74 90"> <path d="M68.8 19.4v-10H41.3C39.1 3.9 33.7 0 27.4 0H15.1C6.8 0 .1 6.7.1 15v42.3c0 7 4.8 12.8 11.2 14.5V90h57.5V49.7H74V19.4h-5.2zM11.3 67.8C7 66.2 3.9 62.1 3.9 57.3V15c0-6.2 5-11.2 11.2-11.2h12.3c4.2 0 7.7 2.3 9.7 5.7H11.3v58.3zm47.6 12H21.2V42.1h37.6v37.7zm0-51.5H21.2v-8.8h37.6v8.8z"/> <path d="M25.4 46.3h6.8v6.8h-6.8z"/> <path d="M36.7 46.3h6.8v6.8h-6.8z"/> <path d="M47.9 46.3h6.8v6.8h-6.8z"/> <path d="M25.4 57.6h6.8v6.8h-6.8z"/> <path d="M36.7 57.6h6.8v6.8h-6.8z"/> <path d="M47.9 57.6h6.8v6.8h-6.8z"/> <path d="M25.4 68.9h6.8v6.8h-6.8z"/> <path d="M36.7 68.9h6.8v6.8h-6.8z"/> <path d="M47.9 68.9h6.8v6.8h-6.8z"/> </svg>