<svg id="equipment-zeus-x27" viewBox="0 0 119.1 90.1"> <path d="M117.6 74c-.7-4-1.8-7.8-3.4-11.5-1.4-3.2-2.8-6.4-4.4-9.6-2.1-4.4-4.1-7.6-6-12.1-1.5-3.6-1.1-10.4 2.2-13.6 3.4-3.4 11.4-3.7 11.4-3.7V6.8l-6-4.5h-3.2l-.7-1.7h-8.7l-.2-.6h-9.1l-.2.6h-8.7l-.7 1.7h-2.1l-2.6 5H27v-2h-5.9c-.1-.3-.1-.6-.1-.9-.7.1-1.1-.3-1.4-.9-.3-.6-.6-1.1-1-1.6-.4-.6-1-1-1.8-1H14c-.8 0-1.4.4-1.8 1.1-.3.5-.6 1-.9 1.6-.3.6-.7 1-1.4 1 0 .3-.1.5-.1.8H2.1v3.3H0V33h2.1v3.3l26 2.5v16.1h32v-2.2l.1-.1h19.5c1.2 0 2.2.7 2.5 1.8 1.9 5.9 7.5 23.9 7.1 27-.3 1.8-.7 2.4-1.4 3.2-.5.6-1.3 1.5-1.4 2.2-.1.7.3 1.6.5 2.3.3.9.9.9 1.9.8 3.1-.3 24.8-2.7 26.9-2.9 2.5-.3 3.2-1.6 3.2-3.3 0-.9-1.2-8.5-1.4-9.7zM79.9 48.5c-2.2 0-4.3 0-6.5.1h-3.2l-3.4-1.8h-6.6v-4.1c.2 0 .4-.1.8-.2v-6.6c-.3-.1-.7-.1-.8-.2v-2.1c2.6 0 9.4 0 12-.1 1.1 0 2.2-.1 3.3-.1h.7v13.4h6.2c-.7 1.1-1.4 1.6-2.5 1.7z"/> </svg>