<svg id="equipment-flash-bang" viewBox="0 0 72 90"> <path d="M28.8 54.2L13.2 64.5 21 46.4.1 38.3l18.2-3.7L7.9 19.3 28 21.8 28.8 0 40 19.3 58.3 7.4l-5.9 20H72L57.9 38.6l12.2 11.6-18.5-.1 4 17-14.4-12.9z" fill="#ffffff" style="opacity: 0.5;"/> <path d="M50 45s-1.8-3.2-3-5.4c-.5-3.4-2-13.3-2-13.3l-1.9-2.4h-3c0 .2 0 .4-.1.6.1.1.2.1.3.2l-.7 2.1s-.2 2-.3 2.3h-9v.3h-2c-.5 0-.9.4-.9.9v2.1c0 .5.4.9.9.9h1.9v4.2c-.3.5-1 1.5-1 1.5v.8h-2c-.2 0-.4.1-.6.2-.6.4-1.1.8-1.7 1.2-.3.2-.5.5-.5.9v3.2c0 .3.1.6.3.9.6.7 1.2 1.5 1.8 2.2.2.2.2.4.2.6v3.1c0 .1 0 .3.1.4.1.4.2.7.3 1.1.3 1.3.3 2.6-.2 3.9-.1.3-.2.5-.2.8v3.8c.2.6.4 1.1.5 1.7.2 1.1.1 2.3-.3 3.4-.1.3-.2.6-.2.9v3.3c0 .2 0 .4.1.6.1.4.3.8.3 1.2.1.6.2 1.3.2 1.9 0 .6-.1 1.2-.3 1.7-.2.4-.3.9-.2 1.4v2.7c0 .2 0 .4-.2.5-.7.9-1.4 1.9-2 2.8-.1.2-.2.3-.2.5v2.9c0 .4.1.7.4.9.6.5 1.3.9 1.9 1.4.1.1.3.1.4.2.5.1 13.2.1 14.1 0 .2 0 .4-.1.6-.2.6-.4 1.3-.9 1.9-1.4.2-.2.4-.4.4-.7V85c0-.3-.1-.6-.3-.9-.6-.9-1.3-1.7-1.9-2.6-.1-.2-.2-.4-.2-.6v-3.1c0-.2 0-.3-.1-.5-.2-.4-.3-.8-.4-1.3-.2-.7-.2-1.4-.2-2.1.1-.7.3-1.4.5-2.1 0-.1.1-.2.1-.3v-3.6c0-.1 0-.2-.1-.3-.1-.5-.3-.9-.4-1.4-.1-.6-.1-1.3-.1-1.9 0-.8.3-1.5.5-2.3.1-.2.1-.3.1-.5V58v-.2c-.1-.2-.2-.5-.3-.7-.2-.6-.3-1.4-.3-2.1 0-.9.2-1.8.5-2.6.1-.2.1-.4.1-.6v-3c0-.2.1-.4.2-.5.6-.7 1.2-1.5 1.8-2.2.2-.3.3-.6.3-.9v-3c.4-.1 1.7-.5 2-.6.1.1 3.3 5.2 3.3 5.2s.1 4.1.1 6.6V71.8c0 .4-.2.6-.6.7l-3 .9c-.5.1-1 .3-1.5.4 0 .2.1.3.1.5 1.7-.5 3.3-.9 4.9-1.4.2-.1.3-.2.4-.4.2-.2.1-.5.1-.8v-6.3-12.6c.3-2.5.3-7.8.3-7.8zm-10.4-5.4v-4.3l.5.5s1.3 3.7 1.3 3.8h-1.8zM40.9 29h-.6c0-.1.2-2.1.2-2.1l.9-2h.6l1.7 2.4s1.6 7.9 1.9 10c.1-.1-4.7-8.3-4.7-8.3z"/> </svg>