<svg id="equipment-defuse-kit" viewBox="0 0 95.38 90"> <path d="M94.21 39.19c-4.3-3.6-8.88-7.04-13.64-9.96-3.02-1.81-6.22-3.11-9.65-3.52-6.19-.65-12.43-.94-18.73-1-4.85-.02-9.54.09-14.28-1.6-3.19-1.15-5.4-2.8-6.91-5.74-1.42-2.72-3.36-4.68-5.89-6.6-4.52-3.66-7.96-6.24-11.87-9.51-1.13-.72-1.77-1.54-2.57-.62-.67.77.26 1.72.51 2.21 3.23 4.84 6.38 9.6 9.62 14.44.72 1.03 1.36 1.86 2.86 1.54.29-.02.88.23.97.44.09.21-.09.73-.36 1.04-.53.76-1.27 1.46-1.72 2.29s-1.08 1.09-1.89.93c-.87-.08-1.06-.65-1.04-1.45-.09-1.3-.73-2.12-1.91-2.47-.89-.37-1.86-.81-2.76-1.18-4.33-2.01-8.74-3.94-12.99-5.89-1.13-.58-1.96-.09-1.96.99-.04.51.44 1.05.9 1.46 3.25 3.1 6.79 6.03 9.97 9.21 3.43 3.52 7.3 6.21 11.77 8.07 1.11.43 2.19 1.37 2.92 2.4 1.76 2.48 3.25 5.12 4.74 7.77.09.21.18.57.2.85l.41 5.9c.27 3.89.26 7.79.95 11.5 2.33 12.56 9.55 21.82 19.94 28.69.45.26 1.11.43 1.69.39 1.72-.26 3.47-2.12 3.85-3.81.43-2.06-.6-3.36-2.13-4.55-8.01-6.02-12.56-14.16-14.11-23.89-.66-4.22-1.02-8.32-1.53-12.55-.01-.14-.11-1.58-.49-2.86 3.52-.32 6.44-3.05 6.69-6.76.05-.36-.05-.72 0-1.08 1.16.06 2.39.05 3.54-.03 2.51-.25 5.1-.43 7.69-.61 6.76-.47 13.25.3 19.47 3.41 3.97 1.96 7.89 4.29 11.34 7.02 1.76 1.4 3.54 1.99 5.7.9 2.12-1.02 2.55-4.16.7-5.77zm-56.07-.34c-2.18-.14-3.83-1.97-3.61-4.09.14-2.18 1.97-3.83 4.09-3.61 2.18.14 3.83 1.97 3.61 4.09-.07 2.1-1.91 3.75-4.09 3.61z"/> </svg>