<svg id="equipment-incgrenade" viewBox="0 0 43 90"> <path d="M32.7 7.5L43 6l-.7-4.7-9.9 1.5V0H9.7C8.4 0 7.2 1.1 7.2 2.5V3c0 1.4 1.1 2.5 2.5 2.5h1.5v12.6c-.5.6-1.8 2.4-2 2.4H0V68c.4.6 1.5 1.1 3.1 1.6 3.3.9 8.6 1.6 14.6 1.6s11.3-.6 14.6-1.6c1.8-.5 3-1.2 3.3-1.9 0-17.9.1-41.6.1-46.4 1.3 1.3 4.2 2.2 4.2 2.2l1.4 48.8-1.2 1.3s.2.6.4 1.3l2.6-2.6-1.4-48.8c-.1 0-8.9-15.9-9-16zm-1.5 47.9c-.5 7.3-5.1 10.3-8.4 11.6 3.7-4.2 2.2-9.7-.9-13.9-2.9-4-4-8.4-4-8.4s-2 3.8-5.3 11.2c-2.5 5.6.1 9.6 1.6 11.2-2.5-.9-5.3-2.8-7.2-6.8-.8-1.6-3-7.7 2.7-15.6C17.6 34 16 25.6 16 25.6c1.2.7 2.2 1.7 3 2.7 2.3 3.1 3.4 6.8 3.4 10.5 0 2.2.2 4 .6 5.1.3.9 1.1 1.4 1.1 1.4s1.5-1.5 1.3-4.5c0-.2-.1-1.2-.1-1.2s3.5 3.3 4.8 7.9c1.1 3.3 1.3 6 1.1 7.9zM27 20.6L24.3 18v-3.6h4.3c1 1 3.9 3.9 6.1 6.2H27z"/> <path d="M32.3 76.7c-3.3.9-8.6 1.6-14.6 1.6s-11.3-.6-14.6-1.6c-1.6-.5-2.7-1-3.2-1.6V86.4c.1.8 1.3 1.5 3.3 2.1 3.2.9 8.5 1.6 14.4 1.6s11.2-.6 14.4-1.6c2.1-.6 3.3-1.4 3.3-2.2V74.9c0 .7-1.2 1.3-3 1.8z"/> </svg>