<svg id="equipment-grenade" viewBox="0 0 70 90"> <path d="M68.1 48c-1.9-4.5-11.4-23.7-12.3-25.8.3-2.4.5-3.7.7-6.4C55.2 11.9 52 3.7 50.9.6 49.6.4 46.2.1 45.5 0c-.1.4-.3 1.3-.3 1.3s.3.1.5.1c-.3.9-.5 1.4-.8 2.2H22.2v.9h-2.4c-2.1 0-3.9 1.8-3.9 3.9v1.5c0 2.1 1.8 3.9 3.9 3.9h2.4v14.4H24v8.2h-3.7C9.1 36.5 0 45.6 0 56.7v5.1C0 77.3 12.7 90 28.2 90h7.1c15.5 0 28.2-12.7 28.2-28.2v-5.1c0-11.1-9.1-20.3-20.3-20.3h-3.8v-8.2h12.7c1 1.3 13.5 20.2 13.5 21.2.1 1.8 2.4 35.4 2.5 36.7-.5.5-2.3 2.1-2.3 2.1s.3.5.6.9c.6-.4 3.4-2.4 3.4-2.4S68.2 50.4 68.1 48z"/> </svg>