<svg id="equipment-bomb" viewBox="0 0 90 90"> <path d="M0 21v47.7h75V21H0zm11.8 41.8c-4.2 0-7.5-3.3-7.5-7.5s3.2-7.4 7.5-7.4c3.7 0 6.5 2.3 7.2 5.8h-3.8c-.6-1.4-1.9-2.2-3.4-2.2-2.1 0-3.6 1.7-3.6 3.8s1.6 3.9 3.6 3.9c1.5 0 2.8-.9 3.4-2.4H19c-.7 3.6-3.6 6-7.2 6zm21.7-3.7H32v3.3h-3.5v-3.3h-8.3v-.7L25.9 45h3.7L25 55.8h3.6l.6-4.1H32v4.1h1.5v3.3zm9.1 3.5h-5.1v-5.1h5.1v5.1zm0-9.1h-5.1v-5.1h5.1v5.1zm9.1 9.1h-5.1v-5.1h5.1v5.1zm0-9.1h-5.1v-5.1h5.1v5.1zm9.2 9.1h-5.1v-5.1h5.1v5.1zm0-9.1h-5.1v-5.1h5.1v5.1zm9.1 9.1h-5.1v-5.1H70v5.1zm0-9.1h-5.1v-5.1H70v5.1zm0-9.2H37.5V26.1H70v18.2z"/> <path d="M-108 21.2v47.7h75V21.2h-75zM-96.2 63c-4.2 0-7.5-3.3-7.5-7.5s3.2-7.4 7.5-7.4c3.7 0 6.5 2.3 7.2 5.8h-3.8c-.6-1.4-1.9-2.2-3.4-2.2-2.1 0-3.6 1.7-3.6 3.8s1.6 3.9 3.6 3.9c1.5 0 2.8-.9 3.4-2.4h3.8c-.6 3.6-3.5 6-7.2 6zm21.7-3.7H-76v3.3h-3.5v-3.3h-8.3v-.7l5.7-13.4h3.7L-83.1 56h3.6l.6-4.1h2.8V56h1.5v3.3zm9.1 3.5h-5.1v-5.1h5.1v5.1zm0-9.1h-5.1v-5.1h5.1v5.1zm9.2 9.1h-5.1v-5.1h5.1v5.1zm0-9.1h-5.1v-5.1h5.1v5.1zm9.1 9.1h-5.1v-5.1h5.1v5.1zm0-9.1h-5.1v-5.1h5.1v5.1zm9.1 9.1h-5.1v-5.1h5.1v5.1zm0-9.1h-5.1v-5.1h5.1v5.1zm0-9.2h-32.5V26.3H-38v18.2z"/> </svg>