<svg id="equipment-decoy-grenade" viewBox="0 0 62 90"><g id="decoy_x5F_grenade"> <path class="st0" d="M49.7 28c-.6-4.1-2.5-16.3-2.5-16.3l-2.3-3h-3.7c0 .3 0 .5-.1.7.2.1.3.2.4.2-.2.4-.9 2.5-.9 2.5s-.3 2.5-.3 2.8H29.4v.4H27c-.6 0-1.1.5-1.1 1.1V19c0 .6.5 1.1 1.1 1.1h2v5.1L27.8 27v1h-2.5c-.3 0-.5.1-.8.3l-2.1 1.5c-.4.3-.6.6-.6 1.1v3.9c0 .4.1.8.4 1.1.8.9 1.5 1.8 2.3 2.7.2.2.3.4.3.7v3.8c0 .2 0 .4.1.5.1.4.3.9.4 1.3.3 1.6.3 3.2-.2 4.8-.1.3-.2.7-.2 1v4.7l.6 2.1c.2 1.4.2 2.8-.3 4.1-.1.4-.3.7-.3 1.1v4c0 .3.1.5.1.8.1.5.3 1 .4 1.5.2.8.2 1.6.2 2.4 0 .7-.1 1.4-.4 2.1-.2.5-.3 1.1-.3 1.7v3.3c0 .2-.1.4-.2.6-.8 1.2-1.7 2.3-2.5 3.5-.2.4-.2.6-.2.8V87c0 .5.2.8.5 1.1.8.6 1.6 1.1 2.3 1.7.1.1.3.2.5.2.6.1 16.2.1 17.3 0 .2 0 .5-.1.7-.3.8-.5 1.6-1.1 2.3-1.7.3-.2.4-.5.4-.9v-3.5c0-.4-.1-.8-.3-1.1-.8-1.1-1.6-2.1-2.3-3.2-.2-.2-.2-.5-.2-.7v-3.8c0-.2 0-.4-.1-.6-.2-.5-.3-1-.5-1.5-.2-.8-.3-1.7-.2-2.6.1-.9.3-1.7.7-2.6 0-.1.1-.2.1-.4v-4.4c0-.1 0-.2-.1-.3-.2-.6-.4-1.1-.6-1.7-.2-.8-.2-1.5-.2-2.3 0-1 .3-1.9.7-2.8.1-.2.1-.4.1-.6v-4.3-.3l-.3-.9c-.4-.9-.4-1.7-.5-2.7 0-1.1.3-2.2.7-3.2.1-.2.1-.5.1-.7v-3.7c0-.3.1-.5.2-.7.8-.9 1.5-1.8 2.3-2.8.3-.3.4-.7.4-1.2v-3.6c.5-.1 2.1-.6 2.5-.8.1.1 4 6.4 4 6.4s.1 5.1.1 8.1V67.3c0 .5-.2.7-.7.9-1.2.4-2.4.7-3.6 1.1-.6.2-1.2.4-1.8.5.1.2.1.4.2.6 2-.6 4-1.1 6-1.7.2-.1.4-.3.5-.5.2-.3.2-.6.2-.9v-7.8V44v-9.5s-2.3-3.8-3.7-6.5zm-9.1.1v-5.3c.3.2.6.6.6.6s1.6 4.6 1.7 4.7h-2.3zM42.1 15h-.7c0-.1.3-2.6.3-2.6l1.1-2.5h.8l2.1 3s1.9 9.7 2.4 12.3c-.1-.1-6-10.2-6-10.2z"/> <path class="st0" d="M15.6 2.8l-4.9 2.9V0H7.3v5.7L2.4 2.8l-1.7 3 4.9 2.8-4.9 2.9 1.7 2.9 4.9-2.8v5.7h3.4v-5.7l4.9 2.8 1.7-2.9-4.9-2.9 4.9-2.8z"/> <path class="st0" d="M15.1 34.3l-2.4 1.3v-2.7h-1.6v2.7l-2.3-1.3-.8 1.4 2.3 1.3L8 38.3l.8 1.4 2.3-1.3v2.7h1.6v-2.7l2.4 1.3.8-1.4-2.4-1.3 2.4-1.3z"/> <path class="st0" d="M62 9.9l-1.2-2-3.4 2v-4H55v4l-3.5-2-1.2 2 3.5 2-3.5 2 1.2 2.1 3.5-2v4h2.4v-4l3.4 2 1.2-2.1-3.4-2z"/> </g> </svg>