<svg id="equipment-molotov" viewBox="0 0 64.49 90"> <path d="M60.26 32.5l3.15-6.24 1.05-6.89.03-9.28-1.97-6.95L60.01.55 56.27.23l-2.25.98s-2.49 2.56-2.59 2.51l-1.98-1.08-2.77 5.1.85.46C46.31 9.99 36.7 23.61 35.95 24.55c-.4.52-8.37 2.79-9.5 4.87L0 78.06l21.54 11.71 26.45-48.65c1.13-2.08-1.25-9.86-1.09-10.38.65-2.09 6.22-15.71 7.53-18.79l.57.31 2.77-5.1-1.42-.77c.29-.09 2.14-.55 2.14-.55s.71 7.48.54 8.01c-.31.57-4.66 9.46-4.66 9.46l-4.74 13.45s1.23 4.71 1.27 5.1c.15-.04 4.08.14 4.18.19.11-.43.17-.76.33-1.29.13.44.45.98.71 1.61l4.14-9.87z"/> </svg>