<svg id="gun-p2000" viewBox="0 0 120 90"> <path d="M117.8 74.5c-1.4-8.6-4.1-16.9-8.4-24.5-2.5-4.5-6.7-7.5-5.3-14.9 1.3-6.6 9.5-7.7 10.9-8.7 2.8-2 1.9-7.7 1.9-7.7l-2-4.4 5.1-2.5-1.8-3.9-5.1 2.5-2.4-5.2-3.3-2.7h-3.6v-.1l.7-2.5H99l-.7 2.5H58.9l-.4 1.9H42.1l-.4-1.9H9.6L7.1 1.1H3v2.5H0v27h30.8c2.4 0 4.4 2 4.4 4.4v7.4c0 2.8 2.3 5.1 5.1 5.1h32.1c1 0 1.9.7 2.2 1.7.9 3.4 2.9 11 4.1 16.6 1.4 6.7 2.8 19.1 2.8 19.1l-3.3 2 .6 3.2s37.9-8.2 38.7-8.3c1.4-.2 1-.3.8-3.1-.2-1.5-.3-2.9-.5-4.2zM70.4 43.1H42.1c-1.2 0-2.2-1-2.2-2.2v-6.6c0-2 1.6-3.6 3.6-3.6h25.3c1.1 0 2 .7 2.2 1.8l1.6 8c.3 1.3-.8 2.6-2.2 2.6z"/> </svg>