<svg id="gun-dual-berettas-elite" viewBox="0 0 290 90"> <path d="M145.57 4v9.2h5v14h11.8V31h38.9c1.7 0 3.2 1.1 3.8 2.6.5 1.2 1 3.6 1.2 5.8.3 2.7.5 4.4.4 5.9 0 1.1.5 2.1 1.5 2.5 3.1 1.4 9.8 3.8 17.6 3.7 11.1-.1 14.2-2 16.9-1 2.6 1 3.4 5.2 3.4 5.2 2 6.6 3 10.5 5.3 17 1.2 3.4 1.1 6.7.6 10.1-.5 3.8 1.8 6.7 5.3 7.1h18.9c1.5 0 2.8-1.2 2.8-2.8v-.4h4.6c2.9 0 5.1-2.5 4.8-5.3-.4-4.1-2.3-12.7-5-20.2-1.6-4.7-4-10.8-6.2-15.3-2-4-2-9.9 1-13.2 2.3-2.4 5.9-3.3 9.4-3.5 1.1 0 2.2-.3 2.4-1.8.2-1.7-.5-2.6-2-2.9-1.8-.4-4.9-1.5-6.6-4.8-1.7-3.5-1.3-7.3-.2-9.5.6-1.3 1.2-2.8.2-4-1.1-1.4-2.4-1.2-3.9-.9-1.9.5-3.6.6-5.1-.8-.7-.7-.9-1.4-.9-1.4h-5.6c-.4 0-.7-.2-.7-.6l-.2-1.9c0-.4-.3-.6-.7-.6h-2.1c-.3 0-.6.3-.6.6l-.2 2c0 .3-.3.6-.7.6h-32.5l-1.5.8h-66.9l-1.1-2.7c-.3-.7-1-1.1-1.8-1l-3.5.5c-.6.1-1 .4-1.3.9l-1.3 2.3h-5.2zm71.7 26.9h17.2c2.5 0 4.7 1.8 5.3 4.3l.8 3.4c.7 3-1.2 6-4.2 6.6-2.7.5-5.7 1.1-9.6 1.1-4.3 0-7.8-.7-10.5-1.3-2.3-.5-4-2.4-4.2-4.7l-.3-3.2c-.4-3.2 2.2-6 5.5-6.2z"/> <path d="M-.03 4v9.1h5.2v14h11.8v3.8h38.8c1.7 0 3.2 1.1 3.8 2.6.5 1.2 1 3.6 1.2 5.8.3 2.7.5 4.4.4 5.9 0 1.1.5 2.1 1.5 2.5 3.1 1.4 9.8 3.8 17.6 3.7 11.1-.1 14.2-2 16.9-1 2.6 1 3.4 5.2 3.4 5.2 2 6.6 3 10.5 5.3 17 1.2 3.4 1.1 6.7.6 10.1-.5 3.8 1.8 6.7 5.3 7.1h18.9c1.5 0 2.8-1.2 2.8-2.8v-.4h4.6c2.9 0 5.1-2.5 4.8-5.3-.4-4.1-2.3-12.7-5-20.2-1.6-4.7-4-10.8-6.2-15.3-2-4-2-9.9 1-13.2 2.3-2.4 5.9-3.3 9.4-3.5 1.1 0 2.2-.3 2.4-1.8.2-1.7-.5-2.6-2-2.9-1.8-.4-4.9-1.5-6.5-4.8-1.7-3.5-1.3-7.3-.2-9.5.6-1.3 1.2-2.8.2-4-1.1-1.3-2.4-1.2-3.9-.8-1.9.5-3.6.6-5.1-.8-.7-.7-.9-1.4-.9-1.4h-5.6c-.4 0-.7-.2-.7-.6l-.2-1.9c0-.4-.3-.6-.6-.6h-2.2c-.3 0-.6.3-.6.6l-.2 2c0 .3-.3.6-.7.6h-32.5l-1.5.8h-66.9l-1.1-2.7c-.3-.7-1-1.1-1.8-1l-3.5.5c-.6.1-1 .4-1.3.9L5.37 4h-5.4zm71.9 26.9h17.2c2.5 0 4.7 1.8 5.3 4.3l.8 3.4c.7 3-1.2 6-4.2 6.6-2.7.5-5.7 1.1-9.6 1.1-4.3 0-7.8-.7-10.5-1.3-2.3-.5-4-2.4-4.2-4.7l-.3-3.2c-.3-3.2 2.2-6 5.5-6.2z"/> </svg>