<svg id="gun-usp-silencer" viewBox="0 0 236 90"> <path d="M232.2 63.8c-3.5-11.9-4.5-14.4-6.3-17.7-.6-1.1-1.2-2.3-1.8-3.4-1.3-2.2-.3-5.5 1.8-6.5.5-.2 1-.5 1.5-.7 1.9-.7 6.9-2.1 7-2.1l-3.3-13.3c1.5-4.3 4.4-10.7 1.3-12-1.2-.5-3.3.7-4.2 1.7l-1-4.3V2.2h-13.7l-.1 2.3H128V1.9c0-1.1-.9-1.9-1.9-1.9h-9.3v4.5h-.2-1.5v.8h-3.8V0H0v22.7h111.3v-5.3l1.9-.1c1.1 0 1.9.1 1.9.1V31.3h32.5c2.1 0 4 1.2 4.9 3.2l5.7 12.8c1.2 2.8 3.9 4.5 6.9 4.5h29.2l9 34.5-1.5 1.4.3 2.3h33.8c.1 0-1.3-18-3.7-26.2zm-64-16.2c-2.2 0-4.2-1.3-5.1-3.3l-3.8-8.7c-1-2.2.6-4.7 3-4.7h21.4c3.1 0 5.8 2.1 6.6 5.1l3 11.6h-25.1z"/> </svg>