<svg id="gun-glock18" viewBox="0 0 146 90"> <path d="M138 24.8c1.2-.1 2.8 0 2.8 0l5.1-3v-19h-5.4c-.3-.7-.6-1.4-1-2-.1-.3-.5-.6-.7-.6-1.7-.3-2.2 0-2.9 1.4-.1.2-.3.4-.3.6-.1.3-.2.5-.4.6H9.3C9 1.8 8.8 1 8.5.1c-.9-.2-1.6 0-2.2.7-.3.4-.8.8-1.2 1.3-.2.3-.5.5-.8.7H0v22.8h.8v4.3h47.7c.7.2 1.5.5 2.2 1 2 1.3 3.4 2.9 3.5 5.3.1 3 .2 6.1.1 9.1 0 .8 0 1.6-.2 2.3h-1.3v4.6H92.7c.2.1 1.3-.4 2.8 2.2 1 1.7 7.2 28.1 7.6 29.6.2.6.4 1.3-.1 1.8-1.6 1.7-.1 4.2-.1 4.2l41.2-14.8.5-2.8-1.2-4.4s-3.7-6.6-7.1-12.2c-3.5-5.5-8.4-14.2-8.6-17.7-.8-8.8 4.2-13 10.3-13.3zM82.7 47.4H67.3c-2 0-3.6-1.6-3.6-3.6v-4.7c0-2 1.6-3.6 3.6-3.6l13.7-.1c1.4 0 2.7.9 3 2.3l1.6 5.9c.9 2.5-.9 3.8-2.9 3.8z"/> </svg>