<svg id="gun-fiveseven" viewBox="0 0 128.8 90"> <path d="M41.1 31.4c-.1-.6-.1-1.2-.2-1.8h-3.2v1.9h-2.9c-.1-.6-.2-1.1-.3-1.8h-3v1.8c-1 .1-1.9.1-2.9 0l-.3-1.8h-3v1.8c-.5 0-1 0-1.5.1-.5 0-.9 0-1.5.1-.1-.6-.2-1.2-.3-1.9h-3v1.9h-3l-.3-1.8h-2.8c0 .6-.1 1.2-.1 1.8h-1.9c-.5-2-1-4-1.5-6.1H2.7c-.7 0-.8-.1-.8-.8v-2.3c-.2-.1-.2-.1-.3-.1C.3 22.3.3 22.3.2 21c0-2.4-.2-4.9-.2-7.3 0-1.7.1-3.5.2-5.2.1-1 .3-1.2 1.3-1.2h3V5.9c0-1.7.8-2.7 2.4-3.4.5-.2 1-.4 1.4-.5.9-.3 1.1-.2 1.6.6.6 1.2 1.2 2.5 1.8 3.7l.4.8h1c4.8 0 9.5-.1 14.3-.1 4.5 0 9.1-.1 13.6-.2.5 0 .9-.1 1.4-.3.5-.2 1-.3 1.6-.3 3-.1 6-.1 8.9-.1C59.2 6 65.7 6 72.2 6c6.8 0 13.5-.1 20.3-.1 2.9 0 5.8-.1 8.7-.2h.6c0-.4 0-.7.1-1 .1-.9.5-1.4 1.5-1.6h.9c2 0 4 0 6.1-.1.5 0 1-.2 1.5-.2.6 0 1.2.1 1.7.1.2-.3.3-.6.5-.9.7-1 1.8-.9 2.9-.8.3 0 .5.1.8.1.1-.4.1-.7.2-1 .4 0 .8-.1 1.3-.1v4.1c0 .9-.2 1-1.1 1-1.1 0-2.2-.1-3.3-.2-.3 0-.7.1-1 .1v.2c.2.1.3.2.5.2h4.4c1.3 0 2.3.3 3.3 1.1 1.3 1.1 2.2 2.2 2.7 3.9 1 3.6 2.1 7.2 3.1 10.9.4 1.6.6 3.4.9 5 .1.6 0 1.2-.3 1.7-.4.7-.8 1.3-1.2 2-.3.5-.8.8-1.3 1-1.7.6-3.4 1.2-5 1.9-1.1.5-2.2 1.1-3.2 1.6-1.2.6-1.8 1.6-2.2 2.8-.1.2-.1.5-.1.8.1 1.2.3 2.3.8 3.5 2.2 5 4.4 10.1 6.1 15.2 1.7 5 3.2 10 4.3 15.2.8 3.7 1.4 7.5 2 11.2.2 1 .1 2.1-.5 3.1-.2.4-.6.8-.4 1.4 0 .1-.3.4-.4.5-1 1.1-2.3 1.4-3.7 1.6-2.8.3-5.5.1-8.3-.2-4-.3-8-.8-12-1.1-2.7-.2-5.5-.2-8.2-.3-1.2 0-2.4-.1-3.5-.5-.8-.3-.9-.7-.3-1.2.4-.4.9-.7 1.4-1.1.2-.2.5-.3.6-.6.2-1 .7-1.9.5-3-.9-5.3-2.4-10.5-3.6-15.8-.1-.4-.3-.7-.5-1-1.6-2.2-2.1-4.7-2-7.3 0-1.1 0-2.1-.4-3.1s-.9-1.9-1.7-2.7c-.2-.2-.5-.3-.8-.4-1.7-.5-3.4-.8-5.2-.7-4.3.2-8.6-.1-12.9-.4-3-.2-6-.3-8.9-.5-1.4-.1-2.7-.1-4-.8-1.7-.9-2.8-2.3-3.3-4.1-.7-3-1.4-5.9-2.1-8.9-.3-1.1-.6-2.1-.9-3.2 0-.1-.1-.3-.2-.4-.9-.5-1.7-1.3-2.9-1.3-1.1.1-2.2 0-3.4 0zm31.2 1h-1.2c-3.2 0-6.4.1-9.7.1-1.9 0-3.7 0-5.6.1-.3 0-.8.1-1 .3-.7.5-1.4 1.1-2 1.7-.4.4-.7.9-.9 1.5-.2.7-.4 1.5-.4 2.2 0 2.5.6 4.9 1.6 7.2.5 1.2 1.5 1.8 2.7 1.9 2.7.2 5.5.4 8.2.5 2.3.1 4.5.3 6.8.4 2.1.1 4.2.2 6.3.1 1.4-.1 2.7-.3 3.9-1 1.9-1.1 2.9-2.8 2.2-5.2l-1.5-5.1c-.3-.8-.6-1.7-.9-2.5-.5-1.1-.9-1.4-2.1-1.2-1 .1-2 .3-2.9.4-1.1.1-1.3.4-1.4 1.5-.1 1.7-.1 3.4-.4 5-.3 1.9-.8 3.8-2.3 5.2-.8.7-1.8 1.2-2.9 1.1-.2 0-.3-.2-.5-.4l.5-.5h.2c.7 0 1.3-.4 1.6-1 .4-.7.8-1.4 1-2.2.5-2.4.6-4.8.1-7.2-.1-.5-.1-.9-.2-1.5.3-.2.6-.3.9-.5 0-.2 0-.4-.1-.9z"/> </svg>