<svg id="gun-r8revolver" viewBox="0 0 158 90"> <path d="M158 84.5c-.4-1.3-5.3-16.7-12.2-30-6.8-13.3-12.5-20-12.5-20l-1.4-12s-6.9-.2-13.6-4.8c-.8-.6-1.2-.8-1.9-1.4.2-.4 1.2-2.4 3.3-3.6 1.4-.8 5.8-.7 5.8-.7l-.2-2.8s-3.4-.1-5.6.2c-1.6.3-3.2 1.4-4.2 2.9-.6.9-1.9 1.1-2.8.5-.1 0-.1-.1-.2-.1-1.8-2.1-2.1-3.3-2.1-3.3H107l-1-3 1.6-1.6-1.2-3.1h-8.8l-1 1.3-6.8-.1V0H38.1l-8.3 3.9v1.8h-7.7c-.3-.1-.7-.1-1-.2l-3-1.1h-4.3V1.2H4v3.2H0v15.1l1.8 1.1v7h7.7V26h1.9v1.6h11.1V26h3.9v-1.4h5.8v-1.9s1.3.1 2.4 1.4c1 1.3 1.3 2.6 1.3 2.6h18.9c3.9 0 7 3 7.4 6.7v7.9H71c.7 0 1.4.1 2.1.3.9.2 1.8.7 2.4 1.4.7.8 1.2 1.7 1.4 2.6.1.4.2.8.2 1.2.8 8.1 6.6 13.3 16 13.3s18.9-7.3 25-3.5c3.1 1.9 2.3 6.4 1.8 7.7-.4.9-.8 1.8-1.3 2.6s-.1 1.4.4 2c.1.1.3.2.4.3 1.4.9 2.2 2.2 2.6 3.7.3 1.1.3 2.1-.2 3.1-.4.9-1 1.7-1.4 2.6-.4.7-.2 1.3.4 1.8.4.3.8.5 1.2.8.7.5 1.6 1 2.2 1.7.6.6 1 1.5 1.2 1.9.6 1.2 1.8 3.4 1.8 3.4s3.7 2.4 16.2 1.6c9.7-.7 14.2-3.2 14.5-4.5.1-.3.1-.6.1-.8zM92.8 38.7c.8 0 1.6.1 2.4.2-.1 1.4-.4 3.3-1.3 5.8-2.3 6.7-7.2 9-9.1 9.7-1.8-1.7-2.9-3.9-2.9-6.4 0-5.1 4.9-9.3 10.9-9.3zm0 18.7c-1.2 0-2.3-.2-3.3-.5 1.4-.8 4.4-2.9 7.2-7.3 2.1-3.2 2.9-6.3 3.2-8.7 2.3 1.7 3.8 4.3 3.8 7.1 0 5.2-4.9 9.4-10.9 9.4z"/> </svg>