<svg id="gun-tec9" viewBox="0 0 118 90"> <path d="M116.8 54.2l-2.1-5.7c-1.3-3.2-3-6.3-4.7-9.3-1.5-2.6-3.2-5.2-4.7-7.8-.3-.5-2.6-3.4-1-6.1 1.2-1.9 3.3-1.7 3.6-1.9h7.5v-2.1l1.5-.5V8.5l-1.5-.7V5.6h-1.7V2H109l.3-2h-3.5l-.3 2H78.1v1.1H60.8c-.3-1.3-1.5-2.3-3-2.3s-2.6 1-3 2.3H15.3V2h-3C11.9 1.7 10.2.5 8.7.6 7 .7 6.9 2 6.9 2v1.1H5.2v2.3c0 .4-.1.9-.1 1.4H2.4v.8H0V14h2.4v.8h2.7v3.1h33.2v5.6h4.2c.1 0 .2.1.3.2l5.1 5.1c.1.1.2.2.2.3v9.2h-1.6v2.9h3.2v46h-.5-.9v2.2l15.5.6v-2.2l-1.4-.1V44.1h2v-2.9H69v-2.9h-1.2v-1.5H86.2c.3 0 .5 0 .8.1 1.1.4 1.8 1.1 2.2 2.2l5.1 12.6c1 2.4 1.9 4.7 2.9 7.1.1.2.2.4.1.5-.1.4-.2.9-.5 1.3-.2.2-.3.5-.2.8l.3.9c7.1-1 14.1-2.1 21.2-3.2-.5-1.8-.7-3.4-1.3-4.9zM85.2 34.5H69.4c-.9 0-1.6-.7-1.6-1.6v-5.3c0-.9.7-1.6 1.6-1.6h13.9c.6 0 1.2.4 1.3 1l1.8 5.8c.3.9-.3 1.7-1.2 1.7z"/> </svg>