<svg id="gun-cz75" viewBox="0 0 144 90"> <path d="M130 32.7l5.2-8.8v-5.4l-2.8-4.3c2.4-.6 4.2-2.8 4.2-5.4 0-3.1-2.5-5.6-5.6-5.6-1.8 0-3.4.9-4.4 2.2l-2.4-3.7h-5.3V0H114v1.7H37.4V0H30v1.8h-3v3H0v9.7h27.1v5.9h20.4c.4 0 .9.1 1.3.3l-9.6 3.9 1.9 4.6 9-3.7L33 85.1 52 90l16.3-57c2 6.6 8 11.4 17.4 11.4 5.3 0 9.5-1.5 12.5-4l12.4 30.2-3.9 3v5.6H140l4-12.6-14-33.9zM85.8 21.9H87c-.1.7-.2 1.4-.4 2.1-1.5 6-6.1 10.2-11.6 11.5-1-1.3-1.5-2.9-1.5-4.6 0-4.9 4.4-9 12.3-9zm0 18.1c-3.7 0-6.6-.9-8.6-2.3 7.4.4 14.3-4.4 16.2-11.8.2-.7.3-1.4.4-2.1 2.9 1.6 4.4 4.3 4.4 7.2-.1 4.9-4.5 9-12.4 9z"/> </svg>