<svg id="gun-desert-eagle" viewBox="0 0 168 90"> <path d="M160.5 24.8c-2.1-.3-3.9-1.8-3.6-4.4l.2-5.5s-5.1-.9-8.7-3.1c-3.5-2.3-4.2-6.6-4.2-6.6s-1.4.1-2.2.1V0h-4.2l-2.1 2.4H79.1v2.7c-.1 0-.2.1-.2.1H12.8L8.3 1.6H4.2v3.7H0V17h.9c.3.7 3.1 8.5 4.3 11.8V34h74.2v8.2c0 7.8 6.3 14.2 14.2 14.2l20.3-.1 4.4 23.4-2.2 8.2 2.3 2.1h28.4l6.4-5.4-5.2-31.5s-2.8-6.3-3.3-11c-.7-8.1 3.6-10.2 13.2-10.5 2.5-.1 10.2-.1 10.2-.1v-6.2l-7.6-.5zM99.4 50.9c-8.7.5-12.4-2.7-12.4-8s-.7-9.7 10.4-9.7c13.5 0 13.6 1 14.5 9.7.8 8.1-5.5 7.7-12.5 8z"/> </svg>