<svg id="gun-p250" viewBox="0 0 130 90"> <path d="M116.7 34.4c1.2-1.6 2.6-2.9 4.4-3.7 1.4-.6 2.9-1.1 4.3-1.5.9-.3 1.8-.3 2.6-.7 1.4-.5 2.4-1 1.7-2.6-1.7-.5-3.3-.9-4.9-1.5-.9-.3-1.8-.9-2.5-1.5-1.5-1.5-2.5-2.7-3.5-5-.5-1.2-3.3-8.9-3.3-8.9l1.6-.4L116 4l-1.9.4c-.5-1.3-.9-2.6-1.3-3.9-.2-.5-.4-.7-1-.7-1 .1-2 0-3 .1-.8.1-1.5.2-2.3.4-1.3.4-2.7.9-4 1.3-.4.1-.9.3-1.3.4H65.8v1.5c-2.3 0-4.5.1-6.8.1H45v-.8H10.7V1.2H1.3v2.5h-.1L0 3.8v25.7h2.6v2.1H37c1.2.4 2.2 1.1 3 2.1 0 0 .6.8.9 2.7.3 1.8 1.7 9.9 1.6 11.9 0 .4-.2.8-.4 1.1-.7 1-.4 1.9.7 2.3.4.1.8.1 1.1.1 3.6.1 7.2.1 10.8.1l13.1.3c1.2 0 2.4-.3 3.5-.5 1.6-.4 3.2-.9 4.7-1.4 1.4-.4 2.7-.2 4 .5 1.3.8 2.4 1.8 3.3 3 1 1.3 1.5 2.8 1.6 4.4.1 1-.1 2.1-.1 3.1v.3h-.1L92.3 90h29.5l7.1-2.5s-.1-3.3-.2-4.9c0-.7-.2-1.3-.3-1.9l-.3-2.7c-.1-.8-.3-1.7-.5-2.5-.1-.6-.3-1.3-.4-1.9-.2-1-.3-1.9-.6-2.8-.2-.8-.5-1.6-.7-2.4-.3-.9-.5-1.7-.8-2.6-.4-1.1-.8-2.1-1.2-3.2-.3-.8-.7-1.5-1-2.3l-1.2-2.4c-.5-1.1-.9-2.1-1.4-3.2-.3-.8-.7-1.6-1-2.4-.3-.9-.6-1.7-1-2.6l-.6-1.8c-.3-.9-.7-1.7-1-2.6-.2-.7-.3-1.5-.6-2.2-1-2.4-.9-4.8 0-7.2.1-.5.3-1.1.6-1.5zm-36.9 7.2c-.3 1.7-1.2 3.3-2.2 4.7-.6.8-1.3 1.3-2.2 1.7-1.3.4-2.6.9-3.8 1.4-1.4.5-2.8.8-4.3.8l-12.6-.3c-1.4 0-2.9-.1-4.3-.1-2.6.1-4.9-2.3-5.3-4.2-.4-2.5-.9-5-.9-7.5 0-1.5.7-2.5 1.9-3.2 1.9-1.1 3.9-1.7 6.1-1.7 3.4 0 6.9 0 10.3-.1h1.8c1.9 4.9 1.4 11.8-4.8 15.1.6.4 1.2.6 1.8.6 2.4.2 4.4-.8 6-2.6 1.5-1.6 2.2-3.5 2.5-5.7.4-2.4.9-4.7 1.7-7 .1-.2.2-.4.3-.5 3.1-.5 5.5.6 7 3.2 1.1 1.7 1.3 3.5 1 5.4z"/> </svg>