<svg id="icon-bullets" viewBox="0 0 98 90"> <path d="M26.9 50.3V45c0-.2 0-.4-.1-.6L24.2 34V15.8c0-.5-.1-1-.4-1.4L15.9 1.2C15-.1 13.3-.4 12.1.5c-.3.2-.5.4-.7.7l-8 13.2c-.2.5-.4.9-.4 1.4V34L.5 44.3c0 .2-.1.4-.1.6v42.4C.4 88.8 1.6 90 3 90h21.2c1.5 0 2.6-1.2 2.6-2.6V50.3z"/> <path d="M62.3 50.3V45c0-.2 0-.4-.1-.6L59.6 34V15.8c0-.5-.1-1-.4-1.4L51.3 1.2c-.9-1.3-2.6-1.6-3.8-.7-.3.2-.5.4-.7.7l-7.9 13.2c-.2.4-.4.9-.4 1.4V34l-2.6 10.3c0 .2-.1.4-.1.6v42.4c0 1.5 1.2 2.6 2.6 2.6h21.2c1.5 0 2.6-1.2 2.6-2.6v-37z"/> <path d="M97.6 50.3V45c0-.2 0-.4-.1-.6L95 34V15.8c0-.5-.1-1-.4-1.4l-8-13.2C85.7-.1 84-.4 82.8.5c-.3.2-.5.4-.7.7l-7.9 13.2c-.2.4-.4.9-.4 1.4V34l-2.6 10.3c0 .2-.1.4-.1.6v42.4c0 1.5 1.2 2.6 2.6 2.6H95c1.5 0 2.6-1.2 2.6-2.6v-37z"/> </svg>