<svg id="knife-shadow-daggers" viewBox="0 0 284 90"> <path d="M33.8 78.4l2.4-4.2c-2.2-2.3-3.7-5.7-3.7-9.4-.1-6.2 3.7-11.4 8.8-12.8.6-.1 1.2-.3 1.8-.3h.7c6.3-.1 11.5 5.7 11.6 12.8 0 1-.1 3.1-.1 3.1l1.4 2.3 1.2-.6 1.9-3.7 3.1-1.5c59.3.7 72.6-14.2 72.6-14.2S124 31.1 64.8 30.6l-3-1.5-1.8-3.8-1.1-.7-1.4 2.2c.3 1.6.2 3.2-.1 4.9-1.2 6.5-6.5 11.1-12.3 10.8-1.5-.1-3-.5-4.3-1.2-4.4-2.4-7-7.9-5.9-13.8.6-3.1 4-8.1 4-8.1l-3.2-6.3L29 9.2l-9.1 15.6S13 42.3 18.4 63.6l8.8 17.3 6.6-2.5zm-10.2-56s4-6.2 4.3-6.5l2-.5 2.6 1.2 1.6 3.4-1.4 7.5-3.1 1.4-5.6-3.7-.4-2.8zm-3.2 11.7l3.3-1.3 13.7 12.6-.2 3.4-13.5 10.5-3.4-1.3c-3.2-11.1.1-23.9.1-23.9zm3.8 35l4.5-2.8 2.4 1.2.9 6-1.4 2.7-2.1.9-1.6-.5c-.2-.3-3.2-5.3-3.2-5.3l.5-2.2zM173 78.4l2.4-4.2c-2.2-2.3-3.7-5.7-3.7-9.4-.1-6.2 3.7-11.4 8.8-12.8.6-.1 1.2-.3 1.8-.3h.7c6.3-.1 11.5 5.7 11.6 12.8 0 1-.1 3.1-.1 3.1l1.4 2.3 1.2-.6 1.9-3.7 3.1-1.5c59.3.7 72.6-14.2 72.6-14.2S263.3 31.2 204 30.7l-3-1.5-1.8-3.8-1.1-.7-1.4 2.2c.3 1.6.2 3.2-.1 4.9-1.2 6.5-6.5 11.1-12.3 10.8-1.5-.1-3-.5-4.3-1.2-4.4-2.4-7-7.9-5.9-13.8.6-3.1 4-8.1 4-8.1l-3.2-6.3-6.9-3.9-9.1 15.6s-6.9 17.5-1.5 38.8l8.8 17.3 6.8-2.6zm-10.3-56s4-6.2 4.3-6.5l2-.5 2.6 1.2 1.6 3.4-1.4 7.5-3.1 1.4-5.6-3.7-.4-2.8zm-3.1 11.7l3.3-1.3 13.7 12.6-.2 3.4-13.5 10.5-3.4-1.3c-3.3-11.1.1-23.9.1-23.9zm3.7 35l4.5-2.8 2.4 1.2.9 6-1.4 2.7-2.1.9-1.6-.5c-.2-.3-3.2-5.3-3.2-5.3l.5-2.2z"/> </svg>