<svg id="knife-stvok-knife-t" viewBox="0 0 284 90"> <path d="M135.7 59c.1-1.8.9-3.6 2.3-5 2.3-2.2 5.7-2.7 8.5-1.3 1.1.5 1.9 1.2 2.5 2 .5.6.8 1.4 1 2.1.1.3.1.7.2 1.1.1.5.2 1.1.6 1.7.2.5.5.9 1 1.4 1.5 1.7.5 4.4-2.8 6.5-.6.4.6 1.2 1 1.4 1.2.4 4.4-.1 6.8-3 3.1-3.8 1.8-12 1.8-12s14.2 3.1 30.2 3.1c16 .1 27.9-2.7 27.9-2.7s3 3.1 4 3.7c.2.1.8.4 1.7.4l6-.3-1.1-22-6 .3c-.4.1-.8.2-.9.3-.9.6-4 3.6-4 3.6s-11.8-3.2-27.8-3.3-30.9 2-30.9 2 .4-8-1.9-11.2c-1.4-2.1-3.8-2.8-5.2-2.1-1.5.8-2.1 1.7-2.9 2.8-.7 1 1 2.1 1.7 2.1.6 0 2.9 1.5 1.5 3.4-1.3 1.8-1.5 3.8-1.5 3.8s-6-1.3-22.5-.7l-20 1.3c-30.3 2.4-62.4-2.6-62.4-2.6C48.4 40 56.9 51.3 72 55.2c16.8 4.5 63.7 3.8 63.7 3.8z"/> </svg>