<svg id="knife-m9-bayonet" viewBox="0 0 284 90"> <path d="M260.9 38.6V40c-.5-.3-.8-1.1-2.8-1.3-2.4-.3-65.4-1.3-65.4-1.3l-1.3-4.2s-2.2-2.1-.1-3.4c1.8-1.1 3.1-5.7 3.2-10.3.1-4.2-1.6-7.4-3-8.7-1-.9-2.5-1.2-4.1-1.2-2.1 0-5.5 2.3-6.6 7.7-1.7 8.5 2.7 13.2 2.7 13.2l-1 3-9.8-.1c-.2.3-.4.6-.5.8-.9 1.5-1.7 3.2-2.1 4.1-.9 2.1-4.3.9-3.5-1.4.5-1.5 1.2-2.7 1.9-3.6l-5.7-.1s0 .1-.1.1c-.9 1.5-1.7 3.2-2.1 4.1-.9 2.1-4.3.9-3.5-1.4.4-1.1.9-2.1 1.4-2.9h-4.2c-.1.2-.2.3-.3.5-.9 1.5-1.7 3.2-2.1 4.1-.9 2.1-4.3.9-3.5-1.4.5-1.3 1-2.4 1.7-3.2h-4.3c-.2.3-.4.6-.5.8-.9 1.5-1.7 3.2-2.1 4.1-.9 2.1-4.3.9-3.5-1.4.5-1.5 1.2-2.7 1.9-3.6h-4.9c-.2.2-.3.5-.4.7-.9 1.5-1.7 3.2-2.1 4.1-.9 2.1-4.3.9-3.5-1.4.5-1.5 1.1-2.6 1.8-3.5h-4.4c-.2.3-.4.6-.6 1-.9 1.5-1.7 3.2-2.1 4.1-.9 2.1-4.3.9-3.5-1.4.6-1.6 1.3-2.8 2-3.7h-4.3c-.3.4-.6.9-.9 1.3-.9 1.5-1.7 3.2-2.1 4.1-.9 2.1-4.3.9-3.5-1.4.6-1.8 1.5-3.1 2.4-4.1l-5.2-.1c-.2.4-.5.7-.7 1.1-.9 1.5-1.7 3.2-2.1 4.1-.9 2.1-4.3.9-3.5-1.4.6-1.7 1.3-2.9 2.2-3.9l-6.9-.1-83.7 14.1s18.7 14.5 53.3 17.1c30.8 2.3 97.9 1.6 97.9 1.6v-.7c.1-1.5 1.8-1.4 1.8-1.4l12.7-.2 1.1 16.5 3.2 1.2 3.1-.5 3.2-19.6s61.7.4 64.3.6c2 .2 3.6-.5 4.3-1v1.4l4.3.1.3-23.1h-4.2zM87.2 46.7v.8c0 1.6-1.3 2.9-2.9 2.8l-4.8-.1c-1.6 0-2.9-1.3-2.8-2.9v-.8c0-1.6 1.3-2.9 2.9-2.8l4.8.1c1.6 0 2.8 1.3 2.8 2.9zm97.1-26.4c.3-4.5 1.9-8 3.5-7.9 1.6.1 3 3.7 2.6 8.1-.3 4.5-2.2 8.1-3.8 8-1.6 0-2.7-3.7-2.3-8.2z"/> </svg>