<svg id="knife-gold-ct" viewBox="0 0 284 90"> <path d="M251.2 27.5c-1.6.1-3 1.1-4.1 2.8-2.2.7-8 2.6-9.7 2.5-2.1-.1-20-.5-31.2-1.3s-40 2.5-40 2.5c-8.9.9-17-5.7-17.9-14.7l-.1-1-5.8 1.3 1.7 14.6s-3.2 2.3-3.6 2.7c-.4.4-3.1-1.2-3.1-1.2s-63.3 2-84.7 2.9-28.9 10-28.9 10 7.9 8.7 29.4 8.5c21.4-.2 84.5.3 84.5.3s2.5-1.5 3-1.3c.8.3 3.9 1.6 3.9 1.6l4.9 18 6.2-1.5c-3.8-11.2 1.7-16.9 10.7-16.5 0 0 29.2 2.8 40.3 1.5 11.3-1.2 28.3-2 30.4-2.2 2.1-.2 10.6 2.3 10.6 2.3v-.2c1.5 2.2 3.3 3.4 5.1 3.3 3.4-.2 6-4.7 7-11l3-7s-3.4-5.5-3.5-5.7c-1.4-6.7-4.6-11.3-8.1-11.2z"/> </svg>