<svg id="knife-bayonet" viewBox="0 0 284 90"> <path d="M261.9 36.1h-4.2v2l-62.8.6s-.3-2.1.2-3.6c.5-1.8 1.2-9.2.1-12.5-.9-2.9-3.8-4.8-3.8-4.8l-3.3.1s-3 1-4.5 5c-2 5.4-.3 9.5-1 11.3-.7 1.8-1.1 3.4-1.1 3.4h-4l-1.1-1.1H84.1l-65.4 9.9S29 59.2 51.6 60.8c22.5 1.6 129.2-.1 129.2-.1l2.1 10 2.4 2 3.3-1 4.1-13.6 65.2-.7v2h4.2l-.2-23.3zM75.9 48c0 1.5-1.2 2.8-2.8 2.8h-7.7c-1.5 0-2.8-1.2-2.8-2.8v-.7c0-1.5 1.2-2.8 2.8-2.8h7.7c1.5 0 2.8 1.2 2.8 2.8v.7zm115.2-13.7l-2.6 1.8-1.7-2.3s-1.3-3.8-.5-7.2c1-4.7 2.9-5.8 2.9-5.8s2.4 1.5 2.5 6.5c.1 3.1-.6 7-.6 7z"/> </svg>