<svg id="knife-karambit" viewBox="0 0 284 90"> <path d="M235.5 43.2c-2.8-2.6-12.3-10.9-25.1-17.3-14.8-7.4-23.5-10.3-26.5-11.2-2.5-.8-6.2-2-8.6-.7-8.3 4.8-18.2 4.7-26.6-2.5-3.1-2.7-4.3-4-4.3-4s-6.2-.5-7.3-.6c-1 0-1.1.4-1.2 1.2-.1.8-.3 1.9-.3 1.9h-7s-27.1.3-52.8 19.7C45.1 52.9 42.3 78.9 42.3 78.9S60.7 53 90.4 45.4c28.4-7.3 49.7 1.7 49.7 1.7s.2 1.8.2 2.1c0 .3.1.7.8 1 .6.3 4.3 1.3 5.3 1.5 1.3.3 1.9-.7 2.4-1.8.7-1.7 3-10.5 11.2-12.3 5.5-1.2 9.5 1 12.5 5.9.8 1.3 1 3 3 2.1 5.6-2.6 12.6-.7 15.8 4.5 1.8 2.9 1.6 5.3 4.7 4.2 4.6-1.6 10 2.1 11 6.7.2 1.1 1.2 6.9 3.3 10.2 4.7 7.5 13.2 9.9 20.6 5.1 3.2-2 5.1-3.7 7.1-4.4 1.1-.4 2.5-.6 3.5-.6.6 0 1-.5.9-1.1-.7-4.1-3.3-18.4-3.8-21.1-.3-2.5-.4-3.3-3.1-5.9zm-5.8 29.5c-5.3 3.4-12.4 1.8-15.8-3.5-3.4-5.3-1.8-12.4 3.5-15.8 5.3-3.4 12.4-1.8 15.8 3.5 3.5 5.3 1.9 12.4-3.5 15.8z"/> </svg>