<svg id="knife-gold-knife-t" viewBox="0 0 284 90"> <path d="M141.3 59.6c.2-2.6 1.2-5.1 3.3-7 3.2-3.1 8-3.8 12-1.9 1.5.7 2.7 1.7 3.6 2.8.7.9 1.1 1.9 1.4 3 .1.4.2.9.3 1.5.1.7.3 1.5.8 2.4.3.6.8 1.3 1.3 2 2.1 2.4.7 6.1-4 9.1-.8.5.9 1.7 1.4 1.9 1.6.6 6.2-.1 9.5-4.2 4.3-5.3 2.5-16.8 2.5-16.8s19.9 4.3 42.4 4.4c22.5.1 39.2-3.7 39.2-3.7s4.3 4.4 5.6 5.2c.3.2 1.1.5 2.4.6l8.5-.4-1.6-30.9-8.5.4c-.6.1-1.1.3-1.3.5-1.3.8-5.7 5.1-5.7 5.1s-16.6-4.5-39.1-4.7c-22.5-.2-43.4 2.8-43.4 2.8s.5-11.3-2.6-15.7c-2-2.9-5.3-4-7.4-2.9-2.1 1.1-3 2.3-4 3.9-.9 1.4 1.5 2.9 2.4 2.9.9 0 4 2.1 2.2 4.7-1.9 2.6-2.1 5.4-2.1 5.4s-8.4-1.8-31.5-.9L100.8 31C58.1 34.2 13 27.2 13 27.2c5.4 6 17.4 21.7 38.7 27.2 23.7 6.1 89.6 5.2 89.6 5.2z"/> </svg>