<svg id="knife-talon-knife" viewBox="0 0 284 90"> <path d="M243.2 49.2c-6.8-6.2-15-11.4-21.2-15.2-17.2-10.4-37.6-12.7-44.8-14.7-7.3-2-23-14.7-23-14.7l-5.2-3s-8.5 5.8-9.4 4.1 2.6-5.2 2.6-5.2l-8 .2-5.3 4-.2-4.1-6.7 4.7-.4-4.2-6.2 5.4.1-4-6.8 5.2-.2-3.8c-72.1 15-79.7 65.4-79.7 65.4 58.1-39.1 106.7-35.2 108.1-33.5 1.4 1.7 6.6 2.6 6.6 2.6 8.8 12.7 19.8 12.1 19.8 12.1 5.4-12.7 19.1-7 19.1-7L197 54.2c3.5 2.5 7.6 3.9 11.9 4.1 3.5.1 8.1 1.3 11.6 5.6 1.8 2.2 1.2 5.2 2.2 9.7.2 1.1.5 2.1.8 3.1.3 1.1.7 2.3 1.2 3.4.2.3.3.7.5 1 3 5.7 7.2 7.7 11.1 8.2 3.7.8 7.7.5 11.3-1.3 8.3-4.1 11.9-14 8.1-22.4-3.3-8.8-12.5-16.4-12.5-16.4zM111.4 19.8c-1.3.6-2.8.1-3.4-1.2s-.1-2.8 1.2-3.4 2.8-.1 3.4 1.2.1 2.8-1.2 3.4zm10-2.4c-1.5.7-3.2.1-4-1.4-.7-1.5-.1-3.2 1.4-4 1.5-.7 3.2-.1 4 1.4.7 1.5.1 3.3-1.4 4zm11 .2c-2 1-4.4.1-5.4-1.8-1-2-.1-4.4 1.8-5.4 2-1 4.4-.1 5.4 1.8 1 2 .2 4.4-1.8 5.4zm113 64.6c-5.6 2.7-12.3.4-15-5.1-2.7-5.6-.4-12.3 5.1-15 5.6-2.7 12.3-.4 15 5.1s.4 12.3-5.1 15z"/> </svg>