<svg id="knife-butterfly" viewBox="0 0 284 90"> <path d="M180 29.5c-1.4.1-2.7.6-3.8 1.4-1.9 1.2-4.4 2.2-7.3 2.7-4.4.8-8.5.3-10.9-1.1-1-.6-2.1-1.1-3.3-1.1-1.2 0-2.4.3-3.6.9-1.4.8-2.8 2.3-2.9 3.7l-1.4.9-5.4-3c-5.4 1.9-15.3 3.8-26.3 4.5-14.8.9-27-.5-29.9-2.7l-.1-.1c-.1 0-.1.1-.2.1-4.5 3.4-11.7 7.7-20.5 9.7-12.1 2.7-29.8-.5-29.8-.5s9.9 11.9 28.3 14.8S90.3 56 104.5 55c14.2-1 24-2.1 24-2.1l1.2 1 5.6-.2.6-1.4 5.5-.7c.1 1 .3 2.1.9 3 1.6 2.8 4.8 4.1 7.8 3.4 0 0-2.1 6.3 4.8 9.4 0 0-4.5-8.2 1.9-13.4h3c2 0 4-.2 6-.6 6.9-1.5 25.3-5 38.5-2.4 16.7 3.3 24.5 7.9 28.4 13.2l7 .8 10.7-16.8C232.2 23.4 180 29.5 180 29.5z"/> </svg>