<svg id="knife-bowie" viewBox="0 0 284 90"> <path d="M63.1 33.6s-7.2 4.8-19.7 7.1-22.3 1.5-22.3 1.5S26.5 49 37.6 53c22.7 8.1 33.9 3 58.4.3 21.9-2.4 42.8 2.1 42.8 2.1l6.4 1.5 9.6-4.2.5 5.5s.3 2.6 1 3 3.3 3 4.2 4.5c.9 1.5.9 3.5.9 3.5l4 .4s.2-3.2-.4-5.4c-.6-2.1-1.7-4.6-1.7-4.6s4.5-5.3 7.6-6.9c9.4-4.9 12.9 1.4 25.5 3.4 9.3 1.5 32.2-2.6 38.5-3.3 6.3-.8 9.9-.1 9.9-.1s.4 1.3 1 1.6 3.3.7 4.2 2.2c2.2 3.6.8 6.1 5.1 5.9 2.5-.1 4.1-.7 4.2-3.1.1-3.7 0-9.1 0-9.1s2.6-.5 2.5-3c-.1-2.5-2.8-2.9-2.8-2.9s-.1-3.4-.2-4.9c0-2-1-3.2-2.5-3.2-2.4 0-11.7.2-11.7.2l-.1 1.2s-15.8-2.6-24.8-2.8c-10.4-.2-25.4.6-29.2.5-11.3-.3-13.5 1.3-20 .6-2.8-.3-8.7-2.4-10.7-4.1-2.4-1.9-4.2-5.5-4.2-5.5l-2.6.4s.4 2.2.6 3.7c.3 1.5.8 4.4.8 4.4s-7 .7-11.4.6c-4.4-.1-6.9-1.6-6.9-1.6l-73-.2z"/> </svg>