<svg id="knife-huntsman" viewBox="0 0 284 90"> <path d="M218.2 34.4l-4.5-1.6c-1.7-.6-3.4-1-5.2-1.2-2.1-.2-4.3-.1-6.4.5-3.5 1-8.3 1.4-13.4.9-6.9-.7-12.9-2.7-15.9-5.2l-2.8-.3-3.5.1c-4.4 3.1-12.6 5.7-22.2 6.7-13.1 1.4-24.3-.7-26.8-4.7h-.5s-46.4 5.6-46.8 5.7c-.4 0-27.9 4.2-27.9 4.2L61 58.7s16.9 7.4 52.5 6.7l1.2-1.8c1.9-2.9 5.1-4.7 8.6-4.9l41-1.7 1.7 13.9h10l-2-4.2c-2-4.1-1.3-9.1 2-12.2 1.3-1.3 2.7-2 4.2-2.1 3.8-.2 6.9 4.2 8.5 9.8l2.3-.5c1.1-4.5 3.6-8.4 6.9-9 2.6-.6 5.3 1.1 7.5 3.7l2.1.5c1.4-1.5 3.2-2.5 5.2-2.6 3.1-.1 5.7 2.2 7.1 5.3 1.1-.1 2.3-.1 3.4.3 3.2 1 5.1 3.9 5.6 7.2l3.8 1.8 9.9-17.5-4.9-9.9c-2-.3-4.2-.8-6.4-1.5-3-.9-5.8-2.1-8.1-3.4-1.7-.9-3.2-1.6-4.9-2.2z"/> </svg>