<svg id="knife-gut-knife" viewBox="0 0 284 90"> <path d="M108.8 30.8c-25.1 4.9-28.1 7.8-34.5 7.9-4.4.1-5.9-4.7-2-6.8 2.9-1.6 6.4-2.8 9.8-3.8 2.7-.8 2.2-3.3-.5-3-7.4.6-46 12.2-46 12.2s18.5 19.9 44.2 26.6c29.8 7.7 66.7 5 66.7 5s-.1-1.1.6-1.9c.8-1 1.7-1.2 1.7-1.2s.2 1.9 1.4 2.3c2 .6 2.2-.7 2.5-1.8.3-1.3.8-5.9 4.1-9.2 5-5 13-6.7 17.6-2 4 4.1 6.1 4.6 11.1 2 3.7-1.9 14 .7 18.5 1.1 4.5.5 17.3 2.1 22.1 5.7 4.8 3.6 7.8 6.4 12.4 3.3 4-2.8 3.1-10.3.5-17.2-2.9-7.6-3.9-10.5-31.1-16.8-18.6-4.3-48.7-6.6-48.7-6.6s-25.2-.7-50.4 4.2zm128 34.5c-1.1.8-2.6.5-3.4-.6s-.5-2.6.6-3.4 2.6-.5 3.4.6c.8 1.1.5 2.6-.6 3.4z"/> </svg>